<svg width="184" height="18" viewBox="0 0 184 18" fill="none" xmlns="http://www.w3.org/2000/svg">
<mask id="mask0_944_30485" style="mask-type:alpha" maskUnits="userSpaceOnUse" x="0" y="0" width="16" height="17">
<rect y="0.5" width="16" height="16" fill="#D9D9D9"/>
</mask>
<g mask="url(#mask0_944_30485)">
<path d="M2.73301 15.4997C2.34801 15.4997 2.01842 15.3622 1.74426 15.0872C1.47009 14.8122 1.33301 14.4817 1.33301 14.0955C1.33301 13.7094 1.47009 13.3802 1.74426 13.108C2.01842 12.8358 2.34801 12.6997 2.73301 12.6997H13.2663C13.6513 12.6997 13.9809 12.8372 14.2551 13.1121C14.5293 13.3871 14.6663 13.7177 14.6663 14.1038C14.6663 14.4899 14.5293 14.8191 14.2551 15.0913C13.9809 15.3636 13.6513 15.4997 13.2663 15.4997H2.73301ZM3.63301 11.483C3.44412 11.483 3.28023 11.4136 3.14134 11.2747C3.00245 11.1358 2.93301 10.9719 2.93301 10.783V9.15627C2.93301 9.06299 2.94967 8.97468 2.98301 8.89134C3.01634 8.80801 3.06634 8.73301 3.13301 8.66634L8.74967 3.04967L11.3663 5.66634L5.74602 11.2867C5.68179 11.3509 5.60801 11.3997 5.52467 11.433C5.44134 11.4663 5.35523 11.483 5.26634 11.483H3.63301ZM4.33301 10.083H4.93301L9.41634 5.59967L8.81634 4.99967L4.33301 9.48301V10.083ZM12.2163 4.81634L9.59967 2.19967L10.7663 1.03301C10.8997 0.899674 11.0719 0.833008 11.283 0.833008C11.4941 0.833008 11.6649 0.898191 11.7952 1.02856L13.4663 2.69967C13.5886 2.8219 13.6358 2.98023 13.608 3.17467C13.5802 3.36912 13.5052 3.52745 13.383 3.64967L12.2163 4.81634Z" fill="#5F6E84"/>
</g>
<g filter="url(#filter0_b_944_30485)">
<path d="M27.7511 11.55H22.5431L21.4651 14H20.0231L24.4611 4.2H25.8471L30.2991 14H28.8291L27.7511 11.55ZM27.2611 10.43L25.1471 5.628L23.0331 10.43H27.2611ZM37.7482 6.58L34.5002 14H33.1282L29.8802 6.58H31.2802L33.8282 12.53L36.4322 6.58H37.7482ZM41.4721 6.51C42.4988 6.51 43.2828 6.762 43.8241 7.266C44.3748 7.77 44.6501 8.52133 44.6501 9.52V14H43.3761V13.02C43.1521 13.3653 42.8301 13.6313 42.4101 13.818C41.9994 13.9953 41.5094 14.084 40.9401 14.084C40.1094 14.084 39.4421 13.8833 38.9381 13.482C38.4434 13.0807 38.1961 12.5533 38.1961 11.9C38.1961 11.2467 38.4341 10.724 38.9101 10.332C39.3861 9.93067 40.1421 9.73 41.1781 9.73H43.3061V9.464C43.3061 8.88533 43.1381 8.442 42.8021 8.134C42.4661 7.826 41.9714 7.672 41.3181 7.672C40.8794 7.672 40.4501 7.74667 40.0301 7.896C39.6101 8.036 39.2554 8.22733 38.9661 8.47L38.4061 7.462C38.7888 7.154 39.2461 6.92067 39.7781 6.762C40.3101 6.594 40.8748 6.51 41.4721 6.51ZM41.1641 13.048C41.6774 13.048 42.1208 12.936 42.4941 12.712C42.8674 12.4787 43.1381 12.152 43.3061 11.732V10.696H41.2341C40.0954 10.696 39.5261 11.0787 39.5261 11.844C39.5261 12.2173 39.6708 12.5113 39.9601 12.726C40.2494 12.9407 40.6508 13.048 41.1641 13.048ZM47.1373 3.612H48.4813V14H47.1373V3.612ZM51.0474 6.58H52.3914V14H51.0474V6.58ZM51.7194 5.152C51.4581 5.152 51.2388 5.068 51.0614 4.9C50.8934 4.732 50.8094 4.52667 50.8094 4.284C50.8094 4.04133 50.8934 3.836 51.0614 3.668C51.2388 3.49067 51.4581 3.402 51.7194 3.402C51.9808 3.402 52.1954 3.486 52.3634 3.654C52.5408 3.81267 52.6294 4.01333 52.6294 4.256C52.6294 4.508 52.5408 4.72267 52.3634 4.9C52.1954 5.068 51.9808 5.152 51.7194 5.152ZM57.6596 6.51C58.6863 6.51 59.4703 6.762 60.0116 7.266C60.5623 7.77 60.8376 8.52133 60.8376 9.52V14H59.5636V13.02C59.3396 13.3653 59.0176 13.6313 58.5976 13.818C58.1869 13.9953 57.6969 14.084 57.1276 14.084C56.2969 14.084 55.6296 13.8833 55.1256 13.482C54.6309 13.0807 54.3836 12.5533 54.3836 11.9C54.3836 11.2467 54.6216 10.724 55.0976 10.332C55.5736 9.93067 56.3296 9.73 57.3656 9.73H59.4936V9.464C59.4936 8.88533 59.3256 8.442 58.9896 8.134C58.6536 7.826 58.1589 7.672 57.5056 7.672C57.0669 7.672 56.6376 7.74667 56.2176 7.896C55.7976 8.036 55.4429 8.22733 55.1536 8.47L54.5936 7.462C54.9763 7.154 55.4336 6.92067 55.9656 6.762C56.4976 6.594 57.0623 6.51 57.6596 6.51ZM57.3516 13.048C57.8649 13.048 58.3083 12.936 58.6816 12.712C59.0549 12.4787 59.3256 12.152 59.4936 11.732V10.696H57.4216C56.2829 10.696 55.7136 11.0787 55.7136 11.844C55.7136 12.2173 55.8583 12.5113 56.1476 12.726C56.4369 12.9407 56.8383 13.048 57.3516 13.048ZM66.5998 14.084C65.8438 14.084 65.1671 13.9207 64.5698 13.594C63.9818 13.2673 63.5198 12.8193 63.1838 12.25C62.8478 11.6713 62.6798 11.018 62.6798 10.29C62.6798 9.562 62.8478 8.91333 63.1838 8.344C63.5198 7.76533 63.9818 7.31733 64.5698 7C65.1671 6.67333 65.8438 6.51 66.5998 6.51C67.2718 6.51 67.8691 6.64533 68.3918 6.916C68.9238 7.18667 69.3345 7.57867 69.6238 8.092L68.6018 8.75C68.3685 8.39533 68.0791 8.12933 67.7338 7.952C67.3885 7.77467 67.0058 7.686 66.5858 7.686C66.1005 7.686 65.6618 7.79333 65.2698 8.008C64.8871 8.22267 64.5838 8.53067 64.3598 8.932C64.1451 9.324 64.0378 9.77667 64.0378 10.29C64.0378 10.8127 64.1451 11.2747 64.3598 11.676C64.5838 12.068 64.8871 12.3713 65.2698 12.586C65.6618 12.8007 66.1005 12.908 66.5858 12.908C67.0058 12.908 67.3885 12.8193 67.7338 12.642C68.0791 12.4647 68.3685 12.1987 68.6018 11.844L69.6238 12.488C69.3345 13.0013 68.9238 13.398 68.3918 13.678C67.8691 13.9487 67.2718 14.084 66.5998 14.084ZM65.9418 17.136C65.4565 17.136 65.0411 17.0333 64.6958 16.828L64.9898 16.142C65.2698 16.3007 65.5871 16.38 65.9418 16.38C66.4645 16.38 66.7258 16.1933 66.7258 15.82C66.7258 15.652 66.6605 15.5167 66.5298 15.414C66.3991 15.3207 66.1985 15.274 65.9278 15.274H65.5498L65.8998 13.902H66.6698L66.4598 14.7C66.8518 14.7373 67.1505 14.8587 67.3558 15.064C67.5705 15.2787 67.6778 15.5447 67.6778 15.862C67.6778 16.254 67.5191 16.562 67.2018 16.786C66.8845 17.0193 66.4645 17.136 65.9418 17.136ZM74.0658 6.51C75.0925 6.51 75.8765 6.762 76.4178 7.266C76.9685 7.77 77.2438 8.52133 77.2438 9.52V14H75.9698V13.02C75.7458 13.3653 75.4238 13.6313 75.0038 13.818C74.5932 13.9953 74.1032 14.084 73.5338 14.084C72.7032 14.084 72.0358 13.8833 71.5318 13.482C71.0372 13.0807 70.7898 12.5533 70.7898 11.9C70.7898 11.2467 71.0278 10.724 71.5038 10.332C71.9798 9.93067 72.7358 9.73 73.7718 9.73H75.8998V9.464C75.8998 8.88533 75.7318 8.442 75.3958 8.134C75.0598 7.826 74.5652 7.672 73.9118 7.672C73.4732 7.672 73.0438 7.74667 72.6238 7.896C72.2038 8.036 71.8492 8.22733 71.5598 8.47L70.9998 7.462C71.3825 7.154 71.8398 6.92067 72.3718 6.762C72.9038 6.594 73.4685 6.51 74.0658 6.51ZM73.7578 13.048C74.2712 13.048 74.7145 12.936 75.0878 12.712C75.4612 12.4787 75.7318 12.152 75.8998 11.732V10.696H73.8278C72.6892 10.696 72.1198 11.0787 72.1198 11.844C72.1198 12.2173 72.2645 12.5113 72.5538 12.726C72.8432 12.9407 73.2445 13.048 73.7578 13.048ZM75.1438 5.46C74.9198 5.46 74.7238 5.41333 74.5558 5.32C74.3972 5.22667 74.1965 5.08667 73.9538 4.9C73.8138 4.76933 73.6925 4.676 73.5898 4.62C73.4872 4.55467 73.3845 4.522 73.2818 4.522C73.0765 4.522 72.9085 4.60133 72.7778 4.76C72.6472 4.90933 72.5772 5.11933 72.5678 5.39H71.8118C71.8305 4.86733 71.9612 4.452 72.2038 4.144C72.4558 3.836 72.7825 3.682 73.1838 3.682C73.4078 3.682 73.6038 3.73333 73.7718 3.836C73.9492 3.92933 74.1498 4.06933 74.3738 4.256C74.5325 4.38667 74.6585 4.48467 74.7518 4.55C74.8452 4.606 74.9432 4.634 75.0458 4.634C75.2512 4.634 75.4192 4.55933 75.5498 4.41C75.6805 4.26067 75.7505 4.05533 75.7598 3.794H76.5158C76.4972 4.298 76.3618 4.704 76.1098 5.012C75.8672 5.31067 75.5452 5.46 75.1438 5.46ZM82.95 14.084C82.2127 14.084 81.55 13.9207 80.962 13.594C80.374 13.2673 79.912 12.8193 79.576 12.25C79.2494 11.6713 79.086 11.018 79.086 10.29C79.086 9.562 79.2494 8.91333 79.576 8.344C79.912 7.76533 80.374 7.31733 80.962 7C81.55 6.67333 82.2127 6.51 82.95 6.51C83.6874 6.51 84.3454 6.67333 84.924 7C85.512 7.31733 85.9694 7.76533 86.296 8.344C86.632 8.91333 86.8 9.562 86.8 10.29C86.8 11.018 86.632 11.6713 86.296 12.25C85.9694 12.8193 85.512 13.2673 84.924 13.594C84.3454 13.9207 83.6874 14.084 82.95 14.084ZM82.95 12.908C83.426 12.908 83.8507 12.8007 84.224 12.586C84.6067 12.362 84.9054 12.054 85.12 11.662C85.3347 11.2607 85.442 10.8033 85.442 10.29C85.442 9.77667 85.3347 9.324 85.12 8.932C84.9054 8.53067 84.6067 8.22267 84.224 8.008C83.8507 7.79333 83.426 7.686 82.95 7.686C82.474 7.686 82.0447 7.79333 81.662 8.008C81.2887 8.22267 80.99 8.53067 80.766 8.932C80.5514 9.324 80.444 9.77667 80.444 10.29C80.444 10.8033 80.5514 11.2607 80.766 11.662C80.99 12.054 81.2887 12.362 81.662 12.586C82.0447 12.8007 82.474 12.908 82.95 12.908ZM98.9845 6.58L95.7365 14H94.3645L91.1165 6.58H92.5165L95.0645 12.53L97.6685 6.58H98.9845ZM102.708 6.51C103.735 6.51 104.519 6.762 105.06 7.266C105.611 7.77 105.886 8.52133 105.886 9.52V14H104.612V13.02C104.388 13.3653 104.066 13.6313 103.646 13.818C103.236 13.9953 102.746 14.084 102.176 14.084C101.346 14.084 100.678 13.8833 100.174 13.482C99.6798 13.0807 99.4324 12.5533 99.4324 11.9C99.4324 11.2467 99.6704 10.724 100.146 10.332C100.622 9.93067 101.378 9.73 102.414 9.73H104.542V9.464C104.542 8.88533 104.374 8.442 104.038 8.134C103.702 7.826 103.208 7.672 102.554 7.672C102.116 7.672 101.686 7.74667 101.266 7.896C100.846 8.036 100.492 8.22733 100.202 8.47L99.6424 7.462C100.025 7.154 100.482 6.92067 101.014 6.762C101.546 6.594 102.111 6.51 102.708 6.51ZM102.4 13.048C102.914 13.048 103.357 12.936 103.73 12.712C104.104 12.4787 104.374 12.152 104.542 11.732V10.696H102.47C101.332 10.696 100.762 11.0787 100.762 11.844C100.762 12.2173 100.907 12.5113 101.196 12.726C101.486 12.9407 101.887 13.048 102.4 13.048ZM108.374 3.612H109.718V14H108.374V3.612ZM118.99 10.332C118.99 10.4347 118.98 10.57 118.962 10.738H112.942C113.026 11.3913 113.31 11.9187 113.796 12.32C114.29 12.712 114.902 12.908 115.63 12.908C116.516 12.908 117.23 12.6093 117.772 12.012L118.514 12.88C118.178 13.272 117.758 13.5707 117.254 13.776C116.759 13.9813 116.204 14.084 115.588 14.084C114.804 14.084 114.108 13.9253 113.502 13.608C112.895 13.2813 112.424 12.8287 112.088 12.25C111.761 11.6713 111.598 11.018 111.598 10.29C111.598 9.57133 111.756 8.92267 112.074 8.344C112.4 7.76533 112.844 7.31733 113.404 7C113.973 6.67333 114.612 6.51 115.322 6.51C116.031 6.51 116.661 6.67333 117.212 7C117.772 7.31733 118.206 7.76533 118.514 8.344C118.831 8.92267 118.99 9.58533 118.99 10.332ZM115.322 7.644C114.678 7.644 114.136 7.84 113.698 8.232C113.268 8.624 113.016 9.13733 112.942 9.772H117.702C117.627 9.14667 117.37 8.638 116.932 8.246C116.502 7.84467 115.966 7.644 115.322 7.644ZM124.818 6.51C125.761 6.51 126.507 6.78533 127.058 7.336C127.618 7.87733 127.898 8.67533 127.898 9.73V14H126.554V9.884C126.554 9.16533 126.381 8.624 126.036 8.26C125.691 7.896 125.196 7.714 124.552 7.714C123.824 7.714 123.25 7.92867 122.83 8.358C122.41 8.778 122.2 9.38467 122.2 10.178V14H120.856V6.58H122.144V7.7C122.415 7.31733 122.779 7.02333 123.236 6.818C123.703 6.61267 124.23 6.51 124.818 6.51ZM137.426 3.612V14H136.138V12.824C135.84 13.2347 135.462 13.5473 135.004 13.762C134.547 13.9767 134.043 14.084 133.492 14.084C132.774 14.084 132.13 13.9253 131.56 13.608C130.991 13.2907 130.543 12.8473 130.216 12.278C129.899 11.6993 129.74 11.0367 129.74 10.29C129.74 9.54333 129.899 8.88533 130.216 8.316C130.543 7.74667 130.991 7.30333 131.56 6.986C132.13 6.66867 132.774 6.51 133.492 6.51C134.024 6.51 134.514 6.61267 134.962 6.818C135.41 7.014 135.784 7.308 136.082 7.7V3.612H137.426ZM133.604 12.908C134.071 12.908 134.496 12.8007 134.878 12.586C135.261 12.362 135.56 12.054 135.774 11.662C135.989 11.2607 136.096 10.8033 136.096 10.29C136.096 9.77667 135.989 9.324 135.774 8.932C135.56 8.53067 135.261 8.22267 134.878 8.008C134.496 7.79333 134.071 7.686 133.604 7.686C133.128 7.686 132.699 7.79333 132.316 8.008C131.943 8.22267 131.644 8.53067 131.42 8.932C131.206 9.324 131.098 9.77667 131.098 10.29C131.098 10.8033 131.206 11.2607 131.42 11.662C131.644 12.054 131.943 12.362 132.316 12.586C132.699 12.8007 133.128 12.908 133.604 12.908ZM143.147 14.084C142.41 14.084 141.747 13.9207 141.159 13.594C140.571 13.2673 140.109 12.8193 139.773 12.25C139.447 11.6713 139.283 11.018 139.283 10.29C139.283 9.562 139.447 8.91333 139.773 8.344C140.109 7.76533 140.571 7.31733 141.159 7C141.747 6.67333 142.41 6.51 143.147 6.51C143.885 6.51 144.543 6.67333 145.121 7C145.709 7.31733 146.167 7.76533 146.493 8.344C146.829 8.91333 146.997 9.562 146.997 10.29C146.997 11.018 146.829 11.6713 146.493 12.25C146.167 12.8193 145.709 13.2673 145.121 13.594C144.543 13.9207 143.885 14.084 143.147 14.084ZM143.147 12.908C143.623 12.908 144.048 12.8007 144.421 12.586C144.804 12.362 145.103 12.054 145.317 11.662C145.532 11.2607 145.639 10.8033 145.639 10.29C145.639 9.77667 145.532 9.324 145.317 8.932C145.103 8.53067 144.804 8.22267 144.421 8.008C144.048 7.79333 143.623 7.686 143.147 7.686C142.671 7.686 142.242 7.79333 141.859 8.008C141.486 8.22267 141.187 8.53067 140.963 8.932C140.749 9.324 140.641 9.77667 140.641 10.29C140.641 10.8033 140.749 11.2607 140.963 11.662C141.187 12.054 141.486 12.362 141.859 12.586C142.242 12.8007 142.671 12.908 143.147 12.908ZM156.578 6.51C157.52 6.51 158.267 6.78533 158.818 7.336C159.378 7.87733 159.658 8.67533 159.658 9.73V14H158.314V9.884C158.314 9.16533 158.141 8.624 157.796 8.26C157.45 7.896 156.956 7.714 156.312 7.714C155.584 7.714 155.01 7.92867 154.59 8.358C154.17 8.778 153.96 9.38467 153.96 10.178V14H152.616V6.58H153.904V7.7C154.174 7.31733 154.538 7.02333 154.996 6.818C155.462 6.61267 155.99 6.51 156.578 6.51ZM165.364 14.084C164.627 14.084 163.964 13.9207 163.376 13.594C162.788 13.2673 162.326 12.8193 161.99 12.25C161.663 11.6713 161.5 11.018 161.5 10.29C161.5 9.562 161.663 8.91333 161.99 8.344C162.326 7.76533 162.788 7.31733 163.376 7C163.964 6.67333 164.627 6.51 165.364 6.51C166.101 6.51 166.759 6.67333 167.338 7C167.926 7.31733 168.383 7.76533 168.71 8.344C169.046 8.91333 169.214 9.562 169.214 10.29C169.214 11.018 169.046 11.6713 168.71 12.25C168.383 12.8193 167.926 13.2673 167.338 13.594C166.759 13.9207 166.101 14.084 165.364 14.084ZM165.364 12.908C165.84 12.908 166.265 12.8007 166.638 12.586C167.021 12.362 167.319 12.054 167.534 11.662C167.749 11.2607 167.856 10.8033 167.856 10.29C167.856 9.77667 167.749 9.324 167.534 8.932C167.319 8.53067 167.021 8.22267 166.638 8.008C166.265 7.79333 165.84 7.686 165.364 7.686C164.888 7.686 164.459 7.79333 164.076 8.008C163.703 8.22267 163.404 8.53067 163.18 8.932C162.965 9.324 162.858 9.77667 162.858 10.29C162.858 10.8033 162.965 11.2607 163.18 11.662C163.404 12.054 163.703 12.362 164.076 12.586C164.459 12.8007 164.888 12.908 165.364 12.908ZM175.245 13.566C175.049 13.734 174.806 13.8647 174.517 13.958C174.227 14.042 173.929 14.084 173.621 14.084C172.874 14.084 172.295 13.8833 171.885 13.482C171.474 13.0807 171.269 12.5067 171.269 11.76V7.686H170.009V6.58H171.269V4.956H172.613V6.58H174.741V7.686H172.613V11.704C172.613 12.1053 172.711 12.4133 172.907 12.628C173.112 12.8427 173.401 12.95 173.775 12.95C174.185 12.95 174.535 12.8333 174.825 12.6L175.245 13.566ZM179.572 6.51C180.598 6.51 181.382 6.762 181.924 7.266C182.474 7.77 182.75 8.52133 182.75 9.52V14H181.476V13.02C181.252 13.3653 180.93 13.6313 180.51 13.818C180.099 13.9953 179.609 14.084 179.04 14.084C178.209 14.084 177.542 13.8833 177.038 13.482C176.543 13.0807 176.296 12.5533 176.296 11.9C176.296 11.2467 176.534 10.724 177.01 10.332C177.486 9.93067 178.242 9.73 179.278 9.73H181.406V9.464C181.406 8.88533 181.238 8.442 180.902 8.134C180.566 7.826 180.071 7.672 179.418 7.672C178.979 7.672 178.55 7.74667 178.13 7.896C177.71 8.036 177.355 8.22733 177.066 8.47L176.506 7.462C176.888 7.154 177.346 6.92067 177.878 6.762C178.41 6.594 178.974 6.51 179.572 6.51ZM179.264 13.048C179.777 13.048 180.22 12.936 180.594 12.712C180.967 12.4787 181.238 12.152 181.406 11.732V10.696H179.334C178.195 10.696 177.626 11.0787 177.626 11.844C177.626 12.2173 177.77 12.5113 178.06 12.726C178.349 12.9407 178.75 13.048 179.264 13.048Z" fill="#5F6E84"/>
</g>
<defs>
<filter id="filter0_b_944_30485" x="-19.9766" y="-36.5977" width="242.727" height="93.7334" filterUnits="userSpaceOnUse" color-interpolation-filters="sRGB">
<feFlood flood-opacity="0" result="BackgroundImageFix"/>
<feGaussianBlur in="BackgroundImageFix" stdDeviation="20"/>
<feComposite in2="SourceAlpha" operator="in" result="effect1_backgroundBlur_944_30485"/>
<feBlend mode="normal" in="SourceGraphic" in2="effect1_backgroundBlur_944_30485" result="shape"/>
</filter>
</defs>
</svg>
