<svg width="155" height="17" viewBox="0 0 155 17" fill="none" xmlns="http://www.w3.org/2000/svg">
<mask id="mask0_944_30341" style="mask-type:alpha" maskUnits="userSpaceOnUse" x="0" y="0" width="16" height="17">
<rect y="0.5" width="16" height="16" fill="#D9D9D9"/>
</mask>
<g mask="url(#mask0_944_30341)">
<path d="M13.4502 6.88317L12.6002 6.03317L13.1502 5.48317L11.0169 3.3665L10.4835 3.9165L9.63353 3.0665L10.1669 2.5165C10.4002 2.28317 10.6835 2.1665 11.0169 2.1665C11.3502 2.1665 11.6335 2.28317 11.8669 2.5165L14.0002 4.64984C14.2335 4.88317 14.3502 5.16373 14.3502 5.4915C14.3502 5.81928 14.2335 6.09984 14.0002 6.33317L13.4502 6.88317ZM5.7502 14.5832C5.59464 14.7387 5.3752 14.8387 5.09186 14.8832C4.80853 14.9276 4.5502 14.8332 4.31686 14.5998L2.0502 12.3332C1.81686 12.1032 1.7002 11.8207 1.7002 11.4857C1.7002 11.1507 1.81686 10.8665 2.0502 10.6332L2.58353 10.1165L3.43353 10.9665L2.9002 11.4832L5.01686 13.6165L5.55019 13.0832L6.4002 13.9332L5.7502 14.5832ZM12.1502 9.23317L13.1335 8.2665L8.26686 3.39984L7.28353 4.3665L12.1502 9.23317ZM7.78353 13.6165L8.7502 12.6498L3.88353 7.78317L2.91686 8.74984L7.78353 13.6165ZM7.70019 9.88317L9.41686 8.18317L8.33353 7.1165L6.63353 8.8165L7.70019 9.88317ZM8.63353 14.4665C8.4002 14.6998 8.11686 14.8165 7.78353 14.8165C7.4502 14.8165 7.16686 14.6998 6.93353 14.4665L2.06686 9.58317C1.83353 9.34984 1.71686 9.06928 1.71686 8.7415C1.71686 8.41373 1.83353 8.13317 2.06686 7.89984L3.03353 6.93317C3.26353 6.69984 3.54603 6.58317 3.88103 6.58317C4.21603 6.58317 4.5002 6.69984 4.73353 6.93317L5.78353 7.9665L7.48353 6.24984L6.43353 5.2165C6.2002 4.98317 6.08353 4.69984 6.08353 4.3665C6.08353 4.03317 6.2002 3.74984 6.43353 3.5165L7.41686 2.54984C7.64686 2.3165 7.92936 2.19984 8.26436 2.19984C8.59936 2.19984 8.88353 2.3165 9.11686 2.54984L14.0002 7.39984C14.2335 7.62984 14.3502 7.91234 14.3502 8.24734C14.3502 8.58234 14.2335 8.8665 14.0002 9.09984L13.0169 10.0665C12.7835 10.2998 12.5002 10.4165 12.1669 10.4165C11.8335 10.4165 11.5502 10.2998 11.3169 10.0665L10.2502 9.0165L8.55019 10.7332L9.60019 11.7832C9.83353 12.0165 9.95297 12.2998 9.95853 12.6332C9.96408 12.9665 9.85019 13.2498 9.61686 13.4832L8.63353 14.4665Z" fill="#5F6E84"/>
</g>
<g filter="url(#filter0_b_944_30341)">
<path d="M29.0488 12.782V14H21.9368V4.2H28.8528V5.418H23.3368V8.428H28.2508V9.618H23.3368V12.782H29.0488ZM35.6876 14L33.5456 11.158L31.3756 14H29.8776L32.8036 10.206L30.0176 6.58H31.5156L33.5596 9.254L35.5896 6.58H37.0596L34.2596 10.206L37.2136 14H35.6876ZM45.1402 10.332C45.1402 10.4347 45.1308 10.57 45.1122 10.738H39.0922C39.1762 11.3913 39.4608 11.9187 39.9462 12.32C40.4408 12.712 41.0522 12.908 41.7802 12.908C42.6668 12.908 43.3808 12.6093 43.9222 12.012L44.6642 12.88C44.3282 13.272 43.9082 13.5707 43.4042 13.776C42.9095 13.9813 42.3542 14.084 41.7382 14.084C40.9542 14.084 40.2588 13.9253 39.6522 13.608C39.0455 13.2813 38.5742 12.8287 38.2382 12.25C37.9115 11.6713 37.7482 11.018 37.7482 10.29C37.7482 9.57133 37.9068 8.92267 38.2242 8.344C38.5508 7.76533 38.9942 7.31733 39.5542 7C40.1235 6.67333 40.7628 6.51 41.4722 6.51C42.1815 6.51 42.8115 6.67333 43.3622 7C43.9222 7.31733 44.3562 7.76533 44.6642 8.344C44.9815 8.92267 45.1402 9.58533 45.1402 10.332ZM41.4722 7.644C40.8282 7.644 40.2868 7.84 39.8482 8.232C39.4188 8.624 39.1668 9.13733 39.0922 9.772H43.8522C43.7775 9.14667 43.5208 8.638 43.0822 8.246C42.6528 7.84467 42.1162 7.644 41.4722 7.644ZM48.2944 7.826C48.5278 7.39667 48.8731 7.07 49.3304 6.846C49.7878 6.622 50.3431 6.51 50.9964 6.51V7.812C50.9218 7.80267 50.8191 7.798 50.6884 7.798C49.9604 7.798 49.3864 8.01733 48.9664 8.456C48.5558 8.88533 48.3504 9.50133 48.3504 10.304V14H47.0064V6.58H48.2944V7.826ZM55.8185 14.084C55.0625 14.084 54.3859 13.9207 53.7885 13.594C53.2005 13.2673 52.7385 12.8193 52.4025 12.25C52.0665 11.6713 51.8985 11.018 51.8985 10.29C51.8985 9.562 52.0665 8.91333 52.4025 8.344C52.7385 7.76533 53.2005 7.31733 53.7885 7C54.3859 6.67333 55.0625 6.51 55.8185 6.51C56.4905 6.51 57.0879 6.64533 57.6105 6.916C58.1425 7.18667 58.5532 7.57867 58.8425 8.092L57.8205 8.75C57.5872 8.39533 57.2979 8.12933 56.9525 7.952C56.6072 7.77467 56.2245 7.686 55.8045 7.686C55.3192 7.686 54.8805 7.79333 54.4885 8.008C54.1059 8.22267 53.8025 8.53067 53.5785 8.932C53.3639 9.324 53.2565 9.77667 53.2565 10.29C53.2565 10.8127 53.3639 11.2747 53.5785 11.676C53.8025 12.068 54.1059 12.3713 54.4885 12.586C54.8805 12.8007 55.3192 12.908 55.8045 12.908C56.2245 12.908 56.6072 12.8193 56.9525 12.642C57.2979 12.4647 57.5872 12.1987 57.8205 11.844L58.8425 12.488C58.5532 13.0013 58.1425 13.398 57.6105 13.678C57.0879 13.9487 56.4905 14.084 55.8185 14.084ZM60.5826 6.58H61.9266V14H60.5826V6.58ZM62.1086 3.682H63.8166L61.4646 5.502H60.2046L62.1086 3.682ZM67.7268 14.084C66.9708 14.084 66.2941 13.9207 65.6968 13.594C65.1088 13.2673 64.6468 12.8193 64.3108 12.25C63.9748 11.6713 63.8068 11.018 63.8068 10.29C63.8068 9.562 63.9748 8.91333 64.3108 8.344C64.6468 7.76533 65.1088 7.31733 65.6968 7C66.2941 6.67333 66.9708 6.51 67.7268 6.51C68.3988 6.51 68.9961 6.64533 69.5188 6.916C70.0508 7.18667 70.4614 7.57867 70.7508 8.092L69.7288 8.75C69.4954 8.39533 69.2061 8.12933 68.8608 7.952C68.5154 7.77467 68.1328 7.686 67.7128 7.686C67.2274 7.686 66.7888 7.79333 66.3968 8.008C66.0141 8.22267 65.7108 8.53067 65.4868 8.932C65.2721 9.324 65.1648 9.77667 65.1648 10.29C65.1648 10.8127 65.2721 11.2747 65.4868 11.676C65.7108 12.068 66.0141 12.3713 66.3968 12.586C66.7888 12.8007 67.2274 12.908 67.7128 12.908C68.1328 12.908 68.5154 12.8193 68.8608 12.642C69.2061 12.4647 69.4954 12.1987 69.7288 11.844L70.7508 12.488C70.4614 13.0013 70.0508 13.398 69.5188 13.678C68.9961 13.9487 68.3988 14.084 67.7268 14.084ZM72.4908 6.58H73.8348V14H72.4908V6.58ZM73.1628 5.152C72.9015 5.152 72.6821 5.068 72.5048 4.9C72.3368 4.732 72.2528 4.52667 72.2528 4.284C72.2528 4.04133 72.3368 3.836 72.5048 3.668C72.6821 3.49067 72.9015 3.402 73.1628 3.402C73.4241 3.402 73.6388 3.486 73.8068 3.654C73.9841 3.81267 74.0728 4.01333 74.0728 4.256C74.0728 4.508 73.9841 4.72267 73.8068 4.9C73.6388 5.068 73.4241 5.152 73.1628 5.152ZM79.579 14.084C78.8416 14.084 78.179 13.9207 77.591 13.594C77.003 13.2673 76.541 12.8193 76.205 12.25C75.8783 11.6713 75.715 11.018 75.715 10.29C75.715 9.562 75.8783 8.91333 76.205 8.344C76.541 7.76533 77.003 7.31733 77.591 7C78.179 6.67333 78.8416 6.51 79.579 6.51C80.3163 6.51 80.9743 6.67333 81.553 7C82.141 7.31733 82.5983 7.76533 82.925 8.344C83.261 8.91333 83.429 9.562 83.429 10.29C83.429 11.018 83.261 11.6713 82.925 12.25C82.5983 12.8193 82.141 13.2673 81.553 13.594C80.9743 13.9207 80.3163 14.084 79.579 14.084ZM79.579 12.908C80.055 12.908 80.4796 12.8007 80.853 12.586C81.2356 12.362 81.5343 12.054 81.749 11.662C81.9636 11.2607 82.071 10.8033 82.071 10.29C82.071 9.77667 81.9636 9.324 81.749 8.932C81.5343 8.53067 81.2356 8.22267 80.853 8.008C80.4796 7.79333 80.055 7.686 79.579 7.686C79.103 7.686 78.6736 7.79333 78.291 8.008C77.9176 8.22267 77.619 8.53067 77.395 8.932C77.1803 9.324 77.073 9.77667 77.073 10.29C77.073 10.8033 77.1803 11.2607 77.395 11.662C77.619 12.054 77.9176 12.362 78.291 12.586C78.6736 12.8007 79.103 12.908 79.579 12.908ZM91.1754 14.084C90.5688 14.084 89.9854 14.0047 89.4254 13.846C88.8654 13.678 88.4268 13.468 88.1094 13.216L88.6694 12.152C88.9961 12.3853 89.3928 12.572 89.8594 12.712C90.3261 12.852 90.7974 12.922 91.2734 12.922C92.4494 12.922 93.0374 12.586 93.0374 11.914C93.0374 11.69 92.9581 11.5127 92.7994 11.382C92.6408 11.2513 92.4401 11.158 92.1974 11.102C91.9641 11.0367 91.6281 10.9667 91.1894 10.892C90.5921 10.7987 90.1021 10.6913 89.7194 10.57C89.3461 10.4487 89.0241 10.2433 88.7534 9.954C88.4828 9.66467 88.3474 9.25867 88.3474 8.736C88.3474 8.064 88.6274 7.52733 89.1874 7.126C89.7474 6.71533 90.4988 6.51 91.4414 6.51C91.9361 6.51 92.4308 6.57067 92.9254 6.692C93.4201 6.81333 93.8261 6.97667 94.1434 7.182L93.5694 8.246C92.9628 7.854 92.2488 7.658 91.4274 7.658C90.8581 7.658 90.4241 7.75133 90.1254 7.938C89.8268 8.12467 89.6774 8.372 89.6774 8.68C89.6774 8.92267 89.7614 9.114 89.9294 9.254C90.0974 9.394 90.3028 9.49667 90.5454 9.562C90.7974 9.62733 91.1474 9.702 91.5954 9.786C92.1928 9.88867 92.6734 10.0007 93.0374 10.122C93.4108 10.234 93.7281 10.43 93.9894 10.71C94.2508 10.99 94.3814 11.382 94.3814 11.886C94.3814 12.558 94.0921 13.0947 93.5134 13.496C92.9441 13.888 92.1648 14.084 91.1754 14.084ZM102.767 10.332C102.767 10.4347 102.758 10.57 102.739 10.738H96.7191C96.8031 11.3913 97.0878 11.9187 97.5731 12.32C98.0678 12.712 98.6791 12.908 99.4071 12.908C100.294 12.908 101.008 12.6093 101.549 12.012L102.291 12.88C101.955 13.272 101.535 13.5707 101.031 13.776C100.536 13.9813 99.9811 14.084 99.3651 14.084C98.5811 14.084 97.8858 13.9253 97.2791 13.608C96.6724 13.2813 96.2011 12.8287 95.8651 12.25C95.5384 11.6713 95.3751 11.018 95.3751 10.29C95.3751 9.57133 95.5338 8.92267 95.8511 8.344C96.1778 7.76533 96.6211 7.31733 97.1811 7C97.7504 6.67333 98.3898 6.51 99.0991 6.51C99.8084 6.51 100.438 6.67333 100.989 7C101.549 7.31733 101.983 7.76533 102.291 8.344C102.608 8.92267 102.767 9.58533 102.767 10.332ZM99.0991 7.644C98.4551 7.644 97.9138 7.84 97.4751 8.232C97.0458 8.624 96.7938 9.13733 96.7191 9.772H101.479C101.404 9.14667 101.148 8.638 100.709 8.246C100.28 7.84467 99.7431 7.644 99.0991 7.644ZM113.915 6.51C114.849 6.51 115.586 6.78067 116.127 7.322C116.678 7.86333 116.953 8.666 116.953 9.73V14H115.609V9.884C115.609 9.16533 115.441 8.624 115.105 8.26C114.779 7.896 114.307 7.714 113.691 7.714C113.01 7.714 112.469 7.92867 112.067 8.358C111.666 8.778 111.465 9.38467 111.465 10.178V14H110.121V9.884C110.121 9.16533 109.953 8.624 109.617 8.26C109.291 7.896 108.819 7.714 108.203 7.714C107.522 7.714 106.981 7.92867 106.579 8.358C106.178 8.778 105.977 9.38467 105.977 10.178V14H104.633V6.58H105.921V7.686C106.192 7.30333 106.547 7.014 106.985 6.818C107.424 6.61267 107.923 6.51 108.483 6.51C109.062 6.51 109.575 6.62667 110.023 6.86C110.471 7.09333 110.817 7.434 111.059 7.882C111.339 7.45267 111.727 7.11667 112.221 6.874C112.725 6.63133 113.29 6.51 113.915 6.51ZM127.148 6.51C128.091 6.51 128.837 6.78533 129.388 7.336C129.948 7.87733 130.228 8.67533 130.228 9.73V14H128.884V9.884C128.884 9.16533 128.711 8.624 128.366 8.26C128.021 7.896 127.526 7.714 126.882 7.714C126.154 7.714 125.58 7.92867 125.16 8.358C124.74 8.778 124.53 9.38467 124.53 10.178V14H123.186V6.58H124.474V7.7C124.745 7.31733 125.109 7.02333 125.566 6.818C126.033 6.61267 126.56 6.51 127.148 6.51ZM135.934 14.084C135.197 14.084 134.534 13.9207 133.946 13.594C133.358 13.2673 132.896 12.8193 132.56 12.25C132.234 11.6713 132.07 11.018 132.07 10.29C132.07 9.562 132.234 8.91333 132.56 8.344C132.896 7.76533 133.358 7.31733 133.946 7C134.534 6.67333 135.197 6.51 135.934 6.51C136.672 6.51 137.33 6.67333 137.908 7C138.496 7.31733 138.954 7.76533 139.28 8.344C139.616 8.91333 139.784 9.562 139.784 10.29C139.784 11.018 139.616 11.6713 139.28 12.25C138.954 12.8193 138.496 13.2673 137.908 13.594C137.33 13.9207 136.672 14.084 135.934 14.084ZM135.934 12.908C136.41 12.908 136.835 12.8007 137.208 12.586C137.591 12.362 137.89 12.054 138.104 11.662C138.319 11.2607 138.426 10.8033 138.426 10.29C138.426 9.77667 138.319 9.324 138.104 8.932C137.89 8.53067 137.591 8.22267 137.208 8.008C136.835 7.79333 136.41 7.686 135.934 7.686C135.458 7.686 135.029 7.79333 134.646 8.008C134.273 8.22267 133.974 8.53067 133.75 8.932C133.536 9.324 133.428 9.77667 133.428 10.29C133.428 10.8033 133.536 11.2607 133.75 11.662C133.974 12.054 134.273 12.362 134.646 12.586C135.029 12.8007 135.458 12.908 135.934 12.908ZM145.815 13.566C145.619 13.734 145.376 13.8647 145.087 13.958C144.798 14.042 144.499 14.084 144.191 14.084C143.444 14.084 142.866 13.8833 142.455 13.482C142.044 13.0807 141.839 12.5067 141.839 11.76V7.686H140.579V6.58H141.839V4.956H143.183V6.58H145.311V7.686H143.183V11.704C143.183 12.1053 143.281 12.4133 143.477 12.628C143.682 12.8427 143.972 12.95 144.345 12.95C144.756 12.95 145.106 12.8333 145.395 12.6L145.815 13.566ZM150.142 6.51C151.169 6.51 151.953 6.762 152.494 7.266C153.045 7.77 153.32 8.52133 153.32 9.52V14H152.046V13.02C151.822 13.3653 151.5 13.6313 151.08 13.818C150.669 13.9953 150.179 14.084 149.61 14.084C148.779 14.084 148.112 13.8833 147.608 13.482C147.113 13.0807 146.866 12.5533 146.866 11.9C146.866 11.2467 147.104 10.724 147.58 10.332C148.056 9.93067 148.812 9.73 149.848 9.73H151.976V9.464C151.976 8.88533 151.808 8.442 151.472 8.134C151.136 7.826 150.641 7.672 149.988 7.672C149.549 7.672 149.12 7.74667 148.7 7.896C148.28 8.036 147.925 8.22733 147.636 8.47L147.076 7.462C147.459 7.154 147.916 6.92067 148.448 6.762C148.98 6.594 149.545 6.51 150.142 6.51ZM149.834 13.048C150.347 13.048 150.791 12.936 151.164 12.712C151.537 12.4787 151.808 12.152 151.976 11.732V10.696H149.904C148.765 10.696 148.196 11.0787 148.196 11.844C148.196 12.2173 148.341 12.5113 148.63 12.726C148.919 12.9407 149.321 13.048 149.834 13.048Z" fill="#5F6E84"/>
</g>
<defs>
<filter id="filter0_b_944_30341" x="-18.0635" y="-36.5981" width="211.384" height="90.6821" filterUnits="userSpaceOnUse" color-interpolation-filters="sRGB">
<feFlood flood-opacity="0" result="BackgroundImageFix"/>
<feGaussianBlur in="BackgroundImageFix" stdDeviation="20"/>
<feComposite in2="SourceAlpha" operator="in" result="effect1_backgroundBlur_944_30341"/>
<feBlend mode="normal" in="SourceGraphic" in2="effect1_backgroundBlur_944_30341" result="shape"/>
</filter>
</defs>
</svg>
