<svg width="167" height="17" viewBox="0 0 167 17" fill="none" xmlns="http://www.w3.org/2000/svg">
<mask id="mask0_944_30211" style="mask-type:alpha" maskUnits="userSpaceOnUse" x="0" y="0" width="16" height="17">
<rect y="0.5" width="16" height="16" fill="#D9D9D9"/>
</mask>
<g mask="url(#mask0_944_30211)">
<path d="M7.40039 5.8498V5.61647C6.93106 5.47955 6.54706 5.21887 6.24839 4.83444C5.94972 4.45 5.80039 4.00501 5.80039 3.49945C5.80039 2.88858 6.01551 2.36925 6.44576 1.94147C6.876 1.51369 7.39545 1.2998 8.00409 1.2998C8.61273 1.2998 9.13095 1.51425 9.55872 1.94315C9.9865 2.37205 10.2004 2.88988 10.2004 3.49662C10.2004 3.99874 10.0511 4.44315 9.75239 4.82984C9.45372 5.21654 9.06972 5.47875 8.60039 5.61647V5.8498L13.0004 8.3998C13.1904 8.50675 13.3379 8.65015 13.4429 8.83C13.5479 9.00987 13.6004 9.21092 13.6004 9.43314V11.1665C13.6004 11.3887 13.5479 11.5897 13.4429 11.7696C13.3379 11.9495 13.1904 12.0929 13.0004 12.1998L8.60039 14.7498C8.41005 14.8609 8.20968 14.9165 7.99929 14.9165C7.78891 14.9165 7.58928 14.8609 7.40039 14.7498L3.00039 12.1998C2.81039 12.0929 2.66289 11.9495 2.55789 11.7696C2.45289 11.5897 2.40039 11.3887 2.40039 11.1665V9.43314C2.40039 9.21092 2.45289 9.00987 2.55789 8.83C2.66289 8.65015 2.81039 8.50675 3.00039 8.3998L7.40039 5.8498ZM7.40039 12.3331L3.60039 10.1331V11.1665L8.00039 13.6998L12.4004 11.1665V10.1331L8.60039 12.3331C8.41005 12.4442 8.20968 12.4998 7.99929 12.4998C7.78891 12.4998 7.58928 12.4442 7.40039 12.3331ZM7.40039 9.6998V7.2498L4.18372 9.0998L8.00039 11.2998L11.8337 9.0998L8.60039 7.2498V9.6998H7.40039ZM8.00039 4.4998C8.27817 4.4998 8.51428 4.40258 8.70872 4.20814C8.90317 4.01369 9.00039 3.77758 9.00039 3.4998C9.00039 3.22203 8.90317 2.98592 8.70872 2.79147C8.51428 2.59703 8.27817 2.4998 8.00039 2.4998C7.72261 2.4998 7.4865 2.59703 7.29206 2.79147C7.09761 2.98592 7.00039 3.22203 7.00039 3.4998C7.00039 3.77758 7.09761 4.01369 7.29206 4.20814C7.4865 4.40258 7.72261 4.4998 8.00039 4.4998Z" fill="#5F6E84"/>
</g>
<g filter="url(#filter0_b_944_30211)">
<path d="M21.8802 4.2H23.2802V14H21.8802V4.2ZM29.9801 6.51C30.9228 6.51 31.6695 6.78533 32.2201 7.336C32.7801 7.87733 33.0601 8.67533 33.0601 9.73V14H31.7161V9.884C31.7161 9.16533 31.5435 8.624 31.1981 8.26C30.8528 7.896 30.3581 7.714 29.7141 7.714C28.9861 7.714 28.4121 7.92867 27.9921 8.358C27.5721 8.778 27.3621 9.38467 27.3621 10.178V14H26.0181V6.58H27.3061V7.7C27.5768 7.31733 27.9408 7.02333 28.3981 6.818C28.8648 6.61267 29.3921 6.51 29.9801 6.51ZM39.7194 13.566C39.5234 13.734 39.2808 13.8647 38.9914 13.958C38.7021 14.042 38.4034 14.084 38.0954 14.084C37.3488 14.084 36.7701 13.8833 36.3594 13.482C35.9488 13.0807 35.7434 12.5067 35.7434 11.76V7.686H34.4834V6.58H35.7434V4.956H37.0874V6.58H39.2154V7.686H37.0874V11.704C37.0874 12.1053 37.1854 12.4133 37.3814 12.628C37.5868 12.8427 37.8761 12.95 38.2494 12.95C38.6601 12.95 39.0101 12.8333 39.2994 12.6L39.7194 13.566ZM47.8042 10.332C47.8042 10.4347 47.7949 10.57 47.7762 10.738H41.7562C41.8402 11.3913 42.1249 11.9187 42.6102 12.32C43.1049 12.712 43.7162 12.908 44.4442 12.908C45.3309 12.908 46.0449 12.6093 46.5862 12.012L47.3282 12.88C46.9922 13.272 46.5722 13.5707 46.0682 13.776C45.5736 13.9813 45.0182 14.084 44.4022 14.084C43.6182 14.084 42.9229 13.9253 42.3162 13.608C41.7096 13.2813 41.2382 12.8287 40.9022 12.25C40.5756 11.6713 40.4122 11.018 40.4122 10.29C40.4122 9.57133 40.5709 8.92267 40.8882 8.344C41.2149 7.76533 41.6582 7.31733 42.2182 7C42.7876 6.67333 43.4269 6.51 44.1362 6.51C44.8456 6.51 45.4756 6.67333 46.0262 7C46.5862 7.31733 47.0202 7.76533 47.3282 8.344C47.6456 8.92267 47.8042 9.58533 47.8042 10.332ZM44.1362 7.644C43.4922 7.644 42.9509 7.84 42.5122 8.232C42.0829 8.624 41.8309 9.13733 41.7562 9.772H46.5162C46.4416 9.14667 46.1849 8.638 45.7462 8.246C45.3169 7.84467 44.7802 7.644 44.1362 7.644ZM50.9585 7.826C51.1918 7.39667 51.5372 7.07 51.9945 6.846C52.4518 6.622 53.0072 6.51 53.6605 6.51V7.812C53.5858 7.80267 53.4832 7.798 53.3525 7.798C52.6245 7.798 52.0505 8.01733 51.6305 8.456C51.2198 8.88533 51.0145 9.50133 51.0145 10.304V14H49.6705V6.58H50.9585V7.826ZM58.0053 6.51C59.032 6.51 59.816 6.762 60.3573 7.266C60.908 7.77 61.1833 8.52133 61.1833 9.52V14H59.9093V13.02C59.6853 13.3653 59.3633 13.6313 58.9433 13.818C58.5326 13.9953 58.0426 14.084 57.4733 14.084C56.6426 14.084 55.9753 13.8833 55.4713 13.482C54.9766 13.0807 54.7293 12.5533 54.7293 11.9C54.7293 11.2467 54.9673 10.724 55.4433 10.332C55.9193 9.93067 56.6753 9.73 57.7113 9.73H59.8393V9.464C59.8393 8.88533 59.6713 8.442 59.3353 8.134C58.9993 7.826 58.5046 7.672 57.8513 7.672C57.4126 7.672 56.9833 7.74667 56.5633 7.896C56.1433 8.036 55.7886 8.22733 55.4993 8.47L54.9393 7.462C55.322 7.154 55.7793 6.92067 56.3113 6.762C56.8433 6.594 57.408 6.51 58.0053 6.51ZM57.6973 13.048C58.2106 13.048 58.654 12.936 59.0273 12.712C59.4006 12.4787 59.6713 12.152 59.8393 11.732V10.696H57.7673C56.6286 10.696 56.0593 11.0787 56.0593 11.844C56.0593 12.2173 56.204 12.5113 56.4933 12.726C56.7826 12.9407 57.184 13.048 57.6973 13.048ZM67.8425 13.566C67.6465 13.734 67.4038 13.8647 67.1145 13.958C66.8252 14.042 66.5265 14.084 66.2185 14.084C65.4718 14.084 64.8932 13.8833 64.4825 13.482C64.0718 13.0807 63.8665 12.5067 63.8665 11.76V7.686H62.6065V6.58H63.8665V4.956H65.2105V6.58H67.3385V7.686H65.2105V11.704C65.2105 12.1053 65.3085 12.4133 65.5045 12.628C65.7098 12.8427 65.9992 12.95 66.3725 12.95C66.7832 12.95 67.1332 12.8333 67.4225 12.6L67.8425 13.566ZM69.4674 6.58H70.8114V14H69.4674V6.58ZM70.1394 5.152C69.878 5.152 69.6587 5.068 69.4814 4.9C69.3134 4.732 69.2294 4.52667 69.2294 4.284C69.2294 4.04133 69.3134 3.836 69.4814 3.668C69.6587 3.49067 69.878 3.402 70.1394 3.402C70.4007 3.402 70.6154 3.486 70.7834 3.654C70.9607 3.81267 71.0494 4.01333 71.0494 4.256C71.0494 4.508 70.9607 4.72267 70.7834 4.9C70.6154 5.068 70.4007 5.152 70.1394 5.152ZM79.9435 6.58L76.6955 14H75.3235L72.0755 6.58H73.4755L76.0235 12.53L78.6275 6.58H79.9435ZM84.1708 14.084C83.4334 14.084 82.7708 13.9207 82.1828 13.594C81.5948 13.2673 81.1328 12.8193 80.7968 12.25C80.4701 11.6713 80.3068 11.018 80.3068 10.29C80.3068 9.562 80.4701 8.91333 80.7968 8.344C81.1328 7.76533 81.5948 7.31733 82.1828 7C82.7708 6.67333 83.4334 6.51 84.1708 6.51C84.9081 6.51 85.5661 6.67333 86.1448 7C86.7328 7.31733 87.1901 7.76533 87.5168 8.344C87.8528 8.91333 88.0208 9.562 88.0208 10.29C88.0208 11.018 87.8528 11.6713 87.5168 12.25C87.1901 12.8193 86.7328 13.2673 86.1448 13.594C85.5661 13.9207 84.9081 14.084 84.1708 14.084ZM84.1708 12.908C84.6468 12.908 85.0714 12.8007 85.4448 12.586C85.8274 12.362 86.1261 12.054 86.3408 11.662C86.5554 11.2607 86.6628 10.8033 86.6628 10.29C86.6628 9.77667 86.5554 9.324 86.3408 8.932C86.1261 8.53067 85.8274 8.22267 85.4448 8.008C85.0714 7.79333 84.6468 7.686 84.1708 7.686C83.6948 7.686 83.2654 7.79333 82.8828 8.008C82.5094 8.22267 82.2108 8.53067 81.9868 8.932C81.7721 9.324 81.6648 9.77667 81.6648 10.29C81.6648 10.8033 81.7721 11.2607 81.9868 11.662C82.2108 12.054 82.5094 12.362 82.8828 12.586C83.2654 12.8007 83.6948 12.908 84.1708 12.908ZM101.003 14.154L99.7012 12.852C98.8332 13.692 97.7412 14.112 96.4252 14.112C95.7719 14.112 95.1839 14.0047 94.6612 13.79C94.1386 13.5753 93.7279 13.2767 93.4292 12.894C93.1399 12.502 92.9952 12.0587 92.9952 11.564C92.9952 10.9667 93.1772 10.4393 93.5412 9.982C93.9146 9.51533 94.5259 9.03933 95.3752 8.554C94.9459 8.12467 94.6426 7.73733 94.4652 7.392C94.2879 7.04667 94.1992 6.68733 94.1992 6.314C94.1992 5.65133 94.4372 5.11933 94.9132 4.718C95.3986 4.31667 96.0426 4.116 96.8452 4.116C97.5919 4.116 98.1846 4.298 98.6232 4.662C99.0619 5.026 99.2812 5.52533 99.2812 6.16C99.2812 6.65467 99.1179 7.098 98.7912 7.49C98.4739 7.882 97.9419 8.29267 97.1952 8.722L99.6172 11.13C99.8972 10.598 100.098 10.0053 100.219 9.352L101.297 9.702C101.129 10.5607 100.845 11.3073 100.443 11.942L101.759 13.258L101.003 14.154ZM96.8452 5.096C96.4066 5.096 96.0612 5.208 95.8092 5.432C95.5666 5.64667 95.4452 5.93133 95.4452 6.286C95.4452 6.538 95.5106 6.78067 95.6412 7.014C95.7812 7.24733 96.0472 7.56467 96.4392 7.966C97.0832 7.602 97.5266 7.28933 97.7692 7.028C98.0212 6.76667 98.1472 6.482 98.1472 6.174C98.1472 5.84733 98.0306 5.586 97.7972 5.39C97.5732 5.194 97.2559 5.096 96.8452 5.096ZM96.5092 12.992C97.4799 12.992 98.2779 12.684 98.9032 12.068L96.1172 9.296C95.4452 9.66933 94.9739 10.0193 94.7032 10.346C94.4419 10.6633 94.3112 11.0227 94.3112 11.424C94.3112 11.8907 94.5119 12.2687 94.9132 12.558C95.3239 12.8473 95.8559 12.992 96.5092 12.992ZM107.193 4.2H108.593V14H107.193V4.2ZM120.613 6.51C121.546 6.51 122.283 6.78067 122.825 7.322C123.375 7.86333 123.651 8.666 123.651 9.73V14H122.307V9.884C122.307 9.16533 122.139 8.624 121.803 8.26C121.476 7.896 121.005 7.714 120.389 7.714C119.707 7.714 119.166 7.92867 118.765 8.358C118.363 8.778 118.163 9.38467 118.163 10.178V14H116.819V9.884C116.819 9.16533 116.651 8.624 116.315 8.26C115.988 7.896 115.517 7.714 114.901 7.714C114.219 7.714 113.678 7.92867 113.277 8.358C112.875 8.778 112.675 9.38467 112.675 10.178V14H111.331V6.58H112.619V7.686C112.889 7.30333 113.244 7.014 113.683 6.818C114.121 6.61267 114.621 6.51 115.181 6.51C115.759 6.51 116.273 6.62667 116.721 6.86C117.169 7.09333 117.514 7.434 117.757 7.882C118.037 7.45267 118.424 7.11667 118.919 6.874C119.423 6.63133 119.987 6.51 120.613 6.51ZM132.871 10.332C132.871 10.4347 132.861 10.57 132.843 10.738H126.823C126.907 11.3913 127.191 11.9187 127.677 12.32C128.171 12.712 128.783 12.908 129.511 12.908C130.397 12.908 131.111 12.6093 131.653 12.012L132.395 12.88C132.059 13.272 131.639 13.5707 131.135 13.776C130.64 13.9813 130.085 14.084 129.469 14.084C128.685 14.084 127.989 13.9253 127.383 13.608C126.776 13.2813 126.305 12.8287 125.969 12.25C125.642 11.6713 125.479 11.018 125.479 10.29C125.479 9.57133 125.637 8.92267 125.955 8.344C126.281 7.76533 126.725 7.31733 127.285 7C127.854 6.67333 128.493 6.51 129.203 6.51C129.912 6.51 130.542 6.67333 131.093 7C131.653 7.31733 132.087 7.76533 132.395 8.344C132.712 8.92267 132.871 9.58533 132.871 10.332ZM129.203 7.644C128.559 7.644 128.017 7.84 127.579 8.232C127.149 8.624 126.897 9.13733 126.823 9.772H131.583C131.508 9.14667 131.251 8.638 130.813 8.246C130.383 7.84467 129.847 7.644 129.203 7.644ZM136.025 7.826C136.258 7.39667 136.604 7.07 137.061 6.846C137.518 6.622 138.074 6.51 138.727 6.51V7.812C138.652 7.80267 138.55 7.798 138.419 7.798C137.691 7.798 137.117 8.01733 136.697 8.456C136.286 8.88533 136.081 9.50133 136.081 10.304V14H134.737V6.58H136.025V7.826ZM142.566 14.084C141.959 14.084 141.376 14.0047 140.816 13.846C140.256 13.678 139.817 13.468 139.5 13.216L140.06 12.152C140.387 12.3853 140.783 12.572 141.25 12.712C141.717 12.852 142.188 12.922 142.664 12.922C143.84 12.922 144.428 12.586 144.428 11.914C144.428 11.69 144.349 11.5127 144.19 11.382C144.031 11.2513 143.831 11.158 143.588 11.102C143.355 11.0367 143.019 10.9667 142.58 10.892C141.983 10.7987 141.493 10.6913 141.11 10.57C140.737 10.4487 140.415 10.2433 140.144 9.954C139.873 9.66467 139.738 9.25867 139.738 8.736C139.738 8.064 140.018 7.52733 140.578 7.126C141.138 6.71533 141.889 6.51 142.832 6.51C143.327 6.51 143.821 6.57067 144.316 6.692C144.811 6.81333 145.217 6.97667 145.534 7.182L144.96 8.246C144.353 7.854 143.639 7.658 142.818 7.658C142.249 7.658 141.815 7.75133 141.516 7.938C141.217 8.12467 141.068 8.372 141.068 8.68C141.068 8.92267 141.152 9.114 141.32 9.254C141.488 9.394 141.693 9.49667 141.936 9.562C142.188 9.62733 142.538 9.702 142.986 9.786C143.583 9.88867 144.064 10.0007 144.428 10.122C144.801 10.234 145.119 10.43 145.38 10.71C145.641 10.99 145.772 11.382 145.772 11.886C145.772 12.558 145.483 13.0947 144.904 13.496C144.335 13.888 143.555 14.084 142.566 14.084ZM147.452 6.58H148.796V14H147.452V6.58ZM148.124 5.152C147.862 5.152 147.643 5.068 147.466 4.9C147.298 4.732 147.214 4.52667 147.214 4.284C147.214 4.04133 147.298 3.836 147.466 3.668C147.643 3.49067 147.862 3.402 148.124 3.402C148.385 3.402 148.6 3.486 148.768 3.654C148.945 3.81267 149.034 4.01333 149.034 4.256C149.034 4.508 148.945 4.72267 148.768 4.9C148.6 5.068 148.385 5.152 148.124 5.152ZM157.928 6.58L154.68 14H153.308L150.06 6.58H151.46L154.008 12.53L156.612 6.58H157.928ZM162.155 14.084C161.418 14.084 160.755 13.9207 160.167 13.594C159.579 13.2673 159.117 12.8193 158.781 12.25C158.454 11.6713 158.291 11.018 158.291 10.29C158.291 9.562 158.454 8.91333 158.781 8.344C159.117 7.76533 159.579 7.31733 160.167 7C160.755 6.67333 161.418 6.51 162.155 6.51C162.892 6.51 163.55 6.67333 164.129 7C164.717 7.31733 165.174 7.76533 165.501 8.344C165.837 8.91333 166.005 9.562 166.005 10.29C166.005 11.018 165.837 11.6713 165.501 12.25C165.174 12.8193 164.717 13.2673 164.129 13.594C163.55 13.9207 162.892 14.084 162.155 14.084ZM162.155 12.908C162.631 12.908 163.056 12.8007 163.429 12.586C163.812 12.362 164.11 12.054 164.325 11.662C164.54 11.2607 164.647 10.8033 164.647 10.29C164.647 9.77667 164.54 9.324 164.325 8.932C164.11 8.53067 163.812 8.22267 163.429 8.008C163.056 7.79333 162.631 7.686 162.155 7.686C161.679 7.686 161.25 7.79333 160.867 8.008C160.494 8.22267 160.195 8.53067 159.971 8.932C159.756 9.324 159.649 9.77667 159.649 10.29C159.649 10.8033 159.756 11.2607 159.971 11.662C160.195 12.054 160.494 12.362 160.867 12.586C161.25 12.8007 161.679 12.908 162.155 12.908Z" fill="#5F6E84"/>
</g>
<defs>
<filter id="filter0_b_944_30211" x="-18.1191" y="-36.5977" width="224.125" height="90.752" filterUnits="userSpaceOnUse" color-interpolation-filters="sRGB">
<feFlood flood-opacity="0" result="BackgroundImageFix"/>
<feGaussianBlur in="BackgroundImageFix" stdDeviation="20"/>
<feComposite in2="SourceAlpha" operator="in" result="effect1_backgroundBlur_944_30211"/>
<feBlend mode="normal" in="SourceGraphic" in2="effect1_backgroundBlur_944_30211" result="shape"/>
</filter>
</defs>
</svg>
