<svg width="136" height="17" viewBox="0 0 136 17" fill="none" xmlns="http://www.w3.org/2000/svg">
<mask id="mask0_944_30625" style="mask-type:alpha" maskUnits="userSpaceOnUse" x="0" y="0" width="16" height="17">
<rect y="0.5" width="16" height="16" fill="#D9D9D9"/>
</mask>
<g mask="url(#mask0_944_30625)">
<path d="M5.40039 6.4999H10.6004C10.7704 6.4999 10.9129 6.44274 11.0279 6.32842C11.1429 6.21409 11.2004 6.07242 11.2004 5.90342C11.2004 5.73441 11.1429 5.59157 11.0279 5.4749C10.9129 5.35824 10.7704 5.2999 10.6004 5.2999H5.40039C5.23039 5.2999 5.08789 5.35706 4.97289 5.47139C4.85789 5.58572 4.80039 5.72739 4.80039 5.89639C4.80039 6.0654 4.85789 6.20824 4.97289 6.3249C5.08789 6.44157 5.23039 6.4999 5.40039 6.4999ZM5.40039 11.6999H9.00039C9.17039 11.6999 9.31289 11.6427 9.42789 11.5284C9.54289 11.4141 9.60039 11.2724 9.60039 11.1034C9.60039 10.9344 9.54289 10.7916 9.42789 10.6749C9.31289 10.5582 9.17039 10.4999 9.00039 10.4999H5.40039C5.23039 10.4999 5.08789 10.5571 4.97289 10.6714C4.85789 10.7857 4.80039 10.9274 4.80039 11.0964C4.80039 11.2654 4.85789 11.4082 4.97289 11.5249C5.08789 11.6416 5.23039 11.6999 5.40039 11.6999ZM5.40039 9.0999H10.6004C10.7704 9.0999 10.9129 9.04274 11.0279 8.92842C11.1429 8.81409 11.2004 8.67242 11.2004 8.50342C11.2004 8.33441 11.1429 8.19157 11.0279 8.0749C10.9129 7.95824 10.7704 7.8999 10.6004 7.8999H5.40039C5.23039 7.8999 5.08789 7.95706 4.97289 8.07139C4.85789 8.18572 4.80039 8.32739 4.80039 8.49639C4.80039 8.6654 4.85789 8.80824 4.97289 8.9249C5.08789 9.04157 5.23039 9.0999 5.40039 9.0999ZM3.60039 14.0999C3.27039 14.0999 2.98789 13.9824 2.75289 13.7474C2.51789 13.5124 2.40039 13.2299 2.40039 12.8999V4.0999C2.40039 3.7699 2.51789 3.4874 2.75289 3.2524C2.98789 3.0174 3.27039 2.8999 3.60039 2.8999H12.4004C12.7304 2.8999 13.0129 3.0174 13.2479 3.2524C13.4829 3.4874 13.6004 3.7699 13.6004 4.0999V12.8999C13.6004 13.2299 13.4829 13.5124 13.2479 13.7474C13.0129 13.9824 12.7304 14.0999 12.4004 14.0999H3.60039ZM3.60039 12.8999H12.4004V4.0999H3.60039V12.8999Z" fill="#5F6E84"/>
</g>
<g filter="url(#filter0_b_944_30625)">
<path d="M23.584 5.418H20.224V4.2H28.33V5.418H24.97V14H23.584V5.418ZM35.5991 10.332C35.5991 10.4347 35.5898 10.57 35.5711 10.738H29.5511C29.6351 11.3913 29.9198 11.9187 30.4051 12.32C30.8998 12.712 31.5111 12.908 32.2391 12.908C33.1258 12.908 33.8398 12.6093 34.3811 12.012L35.1231 12.88C34.7871 13.272 34.3671 13.5707 33.8631 13.776C33.3685 13.9813 32.8131 14.084 32.1971 14.084C31.4131 14.084 30.7178 13.9253 30.1111 13.608C29.5045 13.2813 29.0331 12.8287 28.6971 12.25C28.3705 11.6713 28.2071 11.018 28.2071 10.29C28.2071 9.57133 28.3658 8.92267 28.6831 8.344C29.0098 7.76533 29.4531 7.31733 30.0131 7C30.5825 6.67333 31.2218 6.51 31.9311 6.51C32.6405 6.51 33.2705 6.67333 33.8211 7C34.3811 7.31733 34.8151 7.76533 35.1231 8.344C35.4405 8.92267 35.5991 9.58533 35.5991 10.332ZM31.9311 7.644C31.2871 7.644 30.7458 7.84 30.3071 8.232C29.8778 8.624 29.6258 9.13733 29.5511 9.772H34.3111C34.2365 9.14667 33.9798 8.638 33.5411 8.246C33.1118 7.84467 32.5751 7.644 31.9311 7.644ZM41.9923 14L39.8503 11.158L37.6803 14H36.1823L39.1083 10.206L36.3223 6.58H37.8203L39.8643 9.254L41.8943 6.58H43.3643L40.5643 10.206L43.5183 14H41.9923ZM49.1569 13.566C48.9609 13.734 48.7183 13.8647 48.4289 13.958C48.1396 14.042 47.8409 14.084 47.5329 14.084C46.7863 14.084 46.2076 13.8833 45.7969 13.482C45.3863 13.0807 45.1809 12.5067 45.1809 11.76V7.686H43.9209V6.58H45.1809V4.956H46.5249V6.58H48.6529V7.686H46.5249V11.704C46.5249 12.1053 46.6229 12.4133 46.8189 12.628C47.0243 12.8427 47.3136 12.95 47.6869 12.95C48.0976 12.95 48.4476 12.8333 48.7369 12.6L49.1569 13.566ZM53.7137 14.084C52.9764 14.084 52.3137 13.9207 51.7257 13.594C51.1377 13.2673 50.6757 12.8193 50.3397 12.25C50.0131 11.6713 49.8497 11.018 49.8497 10.29C49.8497 9.562 50.0131 8.91333 50.3397 8.344C50.6757 7.76533 51.1377 7.31733 51.7257 7C52.3137 6.67333 52.9764 6.51 53.7137 6.51C54.4511 6.51 55.1091 6.67333 55.6877 7C56.2757 7.31733 56.7331 7.76533 57.0597 8.344C57.3957 8.91333 57.5637 9.562 57.5637 10.29C57.5637 11.018 57.3957 11.6713 57.0597 12.25C56.7331 12.8193 56.2757 13.2673 55.6877 13.594C55.1091 13.9207 54.4511 14.084 53.7137 14.084ZM53.7137 12.908C54.1897 12.908 54.6144 12.8007 54.9877 12.586C55.3704 12.362 55.6691 12.054 55.8837 11.662C56.0984 11.2607 56.2057 10.8033 56.2057 10.29C56.2057 9.77667 56.0984 9.324 55.8837 8.932C55.6691 8.53067 55.3704 8.22267 54.9877 8.008C54.6144 7.79333 54.1897 7.686 53.7137 7.686C53.2377 7.686 52.8084 7.79333 52.4257 8.008C52.0524 8.22267 51.7537 8.53067 51.5297 8.932C51.3151 9.324 51.2077 9.77667 51.2077 10.29C51.2077 10.8033 51.3151 11.2607 51.5297 11.662C51.7537 12.054 52.0524 12.362 52.4257 12.586C52.8084 12.8007 53.2377 12.908 53.7137 12.908ZM70.5462 14.154L69.2442 12.852C68.3762 13.692 67.2842 14.112 65.9682 14.112C65.3149 14.112 64.7269 14.0047 64.2042 13.79C63.6815 13.5753 63.2709 13.2767 62.9722 12.894C62.6829 12.502 62.5382 12.0587 62.5382 11.564C62.5382 10.9667 62.7202 10.4393 63.0842 9.982C63.4575 9.51533 64.0689 9.03933 64.9182 8.554C64.4889 8.12467 64.1855 7.73733 64.0082 7.392C63.8309 7.04667 63.7422 6.68733 63.7422 6.314C63.7422 5.65133 63.9802 5.11933 64.4562 4.718C64.9415 4.31667 65.5855 4.116 66.3882 4.116C67.1349 4.116 67.7275 4.298 68.1662 4.662C68.6049 5.026 68.8242 5.52533 68.8242 6.16C68.8242 6.65467 68.6609 7.098 68.3342 7.49C68.0169 7.882 67.4849 8.29267 66.7382 8.722L69.1602 11.13C69.4402 10.598 69.6409 10.0053 69.7622 9.352L70.8402 9.702C70.6722 10.5607 70.3875 11.3073 69.9862 11.942L71.3022 13.258L70.5462 14.154ZM66.3882 5.096C65.9495 5.096 65.6042 5.208 65.3522 5.432C65.1095 5.64667 64.9882 5.93133 64.9882 6.286C64.9882 6.538 65.0535 6.78067 65.1842 7.014C65.3242 7.24733 65.5902 7.56467 65.9822 7.966C66.6262 7.602 67.0695 7.28933 67.3122 7.028C67.5642 6.76667 67.6902 6.482 67.6902 6.174C67.6902 5.84733 67.5735 5.586 67.3402 5.39C67.1162 5.194 66.7989 5.096 66.3882 5.096ZM66.0522 12.992C67.0229 12.992 67.8209 12.684 68.4462 12.068L65.6602 9.296C64.9882 9.66933 64.5169 10.0193 64.2462 10.346C63.9849 10.6633 63.8542 11.0227 63.8542 11.424C63.8542 11.8907 64.0549 12.2687 64.4562 12.558C64.8669 12.8473 65.3989 12.992 66.0522 12.992ZM76.7356 4.2H78.1356V14H76.7356V4.2ZM90.1556 6.51C91.0889 6.51 91.8263 6.78067 92.3676 7.322C92.9183 7.86333 93.1936 8.666 93.1936 9.73V14H91.8496V9.884C91.8496 9.16533 91.6816 8.624 91.3456 8.26C91.0189 7.896 90.5476 7.714 89.9316 7.714C89.2503 7.714 88.7089 7.92867 88.3076 8.358C87.9063 8.778 87.7056 9.38467 87.7056 10.178V14H86.3616V9.884C86.3616 9.16533 86.1936 8.624 85.8576 8.26C85.5309 7.896 85.0596 7.714 84.4436 7.714C83.7623 7.714 83.2209 7.92867 82.8196 8.358C82.4183 8.778 82.2176 9.38467 82.2176 10.178V14H80.8736V6.58H82.1616V7.686C82.4323 7.30333 82.7869 7.014 83.2256 6.818C83.6643 6.61267 84.1636 6.51 84.7236 6.51C85.3023 6.51 85.8156 6.62667 86.2636 6.86C86.7116 7.09333 87.0569 7.434 87.2996 7.882C87.5796 7.45267 87.9669 7.11667 88.4616 6.874C88.9656 6.63133 89.5303 6.51 90.1556 6.51ZM98.3686 6.51C99.3952 6.51 100.179 6.762 100.721 7.266C101.271 7.77 101.547 8.52133 101.547 9.52V14H100.273V13.02C100.049 13.3653 99.7266 13.6313 99.3066 13.818C98.8959 13.9953 98.4059 14.084 97.8366 14.084C97.0059 14.084 96.3386 13.8833 95.8346 13.482C95.3399 13.0807 95.0926 12.5533 95.0926 11.9C95.0926 11.2467 95.3306 10.724 95.8066 10.332C96.2826 9.93067 97.0386 9.73 98.0746 9.73H100.203V9.464C100.203 8.88533 100.035 8.442 99.6986 8.134C99.3626 7.826 98.8679 7.672 98.2146 7.672C97.7759 7.672 97.3466 7.74667 96.9266 7.896C96.5066 8.036 96.1519 8.22733 95.8626 8.47L95.3026 7.462C95.6852 7.154 96.1426 6.92067 96.6746 6.762C97.2066 6.594 97.7712 6.51 98.3686 6.51ZM98.0606 13.048C98.5739 13.048 99.0172 12.936 99.3906 12.712C99.7639 12.4787 100.035 12.152 100.203 11.732V10.696H98.1306C96.9919 10.696 96.4226 11.0787 96.4226 11.844C96.4226 12.2173 96.5672 12.5113 96.8566 12.726C97.1459 12.9407 97.5472 13.048 98.0606 13.048ZM111.173 6.58V12.992C111.173 14.2893 110.851 15.246 110.207 15.862C109.563 16.4873 108.601 16.8 107.323 16.8C106.623 16.8 105.955 16.702 105.321 16.506C104.686 16.3193 104.173 16.0487 103.781 15.694L104.425 14.658C104.77 14.9567 105.195 15.19 105.699 15.358C106.212 15.5353 106.739 15.624 107.281 15.624C108.149 15.624 108.788 15.4187 109.199 15.008C109.619 14.5973 109.829 13.972 109.829 13.132V12.544C109.511 12.9267 109.119 13.216 108.653 13.412C108.195 13.5987 107.696 13.692 107.155 13.692C106.445 13.692 105.801 13.5427 105.223 13.244C104.653 12.936 104.205 12.5113 103.879 11.97C103.552 11.4193 103.389 10.794 103.389 10.094C103.389 9.394 103.552 8.77333 103.879 8.232C104.205 7.68133 104.653 7.25667 105.223 6.958C105.801 6.65933 106.445 6.51 107.155 6.51C107.715 6.51 108.233 6.61267 108.709 6.818C109.194 7.02333 109.591 7.32667 109.899 7.728V6.58H111.173ZM107.309 12.516C107.794 12.516 108.228 12.4133 108.611 12.208C109.003 12.0027 109.306 11.718 109.521 11.354C109.745 10.9807 109.857 10.5607 109.857 10.094C109.857 9.37533 109.619 8.79667 109.143 8.358C108.667 7.91 108.055 7.686 107.309 7.686C106.553 7.686 105.937 7.91 105.461 8.358C104.985 8.79667 104.747 9.37533 104.747 10.094C104.747 10.5607 104.854 10.9807 105.069 11.354C105.293 11.718 105.596 12.0027 105.979 12.208C106.371 12.4133 106.814 12.516 107.309 12.516ZM120.447 10.332C120.447 10.4347 120.437 10.57 120.419 10.738H114.399C114.483 11.3913 114.767 11.9187 115.253 12.32C115.747 12.712 116.359 12.908 117.087 12.908C117.973 12.908 118.687 12.6093 119.229 12.012L119.971 12.88C119.635 13.272 119.215 13.5707 118.711 13.776C118.216 13.9813 117.661 14.084 117.045 14.084C116.261 14.084 115.565 13.9253 114.959 13.608C114.352 13.2813 113.881 12.8287 113.545 12.25C113.218 11.6713 113.055 11.018 113.055 10.29C113.055 9.57133 113.213 8.92267 113.531 8.344C113.857 7.76533 114.301 7.31733 114.861 7C115.43 6.67333 116.069 6.51 116.779 6.51C117.488 6.51 118.118 6.67333 118.669 7C119.229 7.31733 119.663 7.76533 119.971 8.344C120.288 8.92267 120.447 9.58533 120.447 10.332ZM116.779 7.644C116.135 7.644 115.593 7.84 115.155 8.232C114.725 8.624 114.473 9.13733 114.399 9.772H119.159C119.084 9.14667 118.827 8.638 118.389 8.246C117.959 7.84467 117.423 7.644 116.779 7.644ZM131.595 6.51C132.528 6.51 133.266 6.78067 133.807 7.322C134.358 7.86333 134.633 8.666 134.633 9.73V14H133.289V9.884C133.289 9.16533 133.121 8.624 132.785 8.26C132.458 7.896 131.987 7.714 131.371 7.714C130.69 7.714 130.148 7.92867 129.747 8.358C129.346 8.778 129.145 9.38467 129.145 10.178V14H127.801V9.884C127.801 9.16533 127.633 8.624 127.297 8.26C126.97 7.896 126.499 7.714 125.883 7.714C125.202 7.714 124.66 7.92867 124.259 8.358C123.858 8.778 123.657 9.38467 123.657 10.178V14H122.313V6.58H123.601V7.686C123.872 7.30333 124.226 7.014 124.665 6.818C125.104 6.61267 125.603 6.51 126.163 6.51C126.742 6.51 127.255 6.62667 127.703 6.86C128.151 7.09333 128.496 7.434 128.739 7.882C129.019 7.45267 129.406 7.11667 129.901 6.874C130.405 6.63133 130.97 6.51 131.595 6.51Z" fill="#5F6E84"/>
</g>
<defs>
<filter id="filter0_b_944_30625" x="-19.7764" y="-35.8838" width="194.409" height="92.6836" filterUnits="userSpaceOnUse" color-interpolation-filters="sRGB">
<feFlood flood-opacity="0" result="BackgroundImageFix"/>
<feGaussianBlur in="BackgroundImageFix" stdDeviation="20"/>
<feComposite in2="SourceAlpha" operator="in" result="effect1_backgroundBlur_944_30625"/>
<feBlend mode="normal" in="SourceGraphic" in2="effect1_backgroundBlur_944_30625" result="shape"/>
</filter>
</defs>
</svg>
