<svg width="161" height="15" viewBox="0 0 161 15" fill="none" xmlns="http://www.w3.org/2000/svg">
<g filter="url(#filter0_b_944_30347)">
<path d="M3.39284 4.644H0.512844V3.6H7.46084V4.644H4.58084V12H3.39284V4.644ZM10.6676 12.072C10.0356 12.072 9.46756 11.932 8.96356 11.652C8.45956 11.372 8.06356 10.988 7.77556 10.5C7.49556 10.004 7.35556 9.444 7.35556 8.82C7.35556 8.196 7.49556 7.64 7.77556 7.152C8.06356 6.656 8.45956 6.272 8.96356 6C9.46756 5.72 10.0356 5.58 10.6676 5.58C11.2996 5.58 11.8636 5.72 12.3596 6C12.8636 6.272 13.2556 6.656 13.5356 7.152C13.8236 7.64 13.9676 8.196 13.9676 8.82C13.9676 9.444 13.8236 10.004 13.5356 10.5C13.2556 10.988 12.8636 11.372 12.3596 11.652C11.8636 11.932 11.2996 12.072 10.6676 12.072ZM10.6676 11.064C11.0756 11.064 11.4396 10.972 11.7596 10.788C12.0876 10.596 12.3436 10.332 12.5276 9.996C12.7116 9.652 12.8036 9.26 12.8036 8.82C12.8036 8.38 12.7116 7.992 12.5276 7.656C12.3436 7.312 12.0876 7.048 11.7596 6.864C11.4396 6.68 11.0756 6.588 10.6676 6.588C10.2596 6.588 9.89156 6.68 9.56356 6.864C9.24356 7.048 8.98756 7.312 8.79556 7.656C8.61156 7.992 8.51956 8.38 8.51956 8.82C8.51956 9.26 8.61156 9.652 8.79556 9.996C8.98756 10.332 9.24356 10.596 9.56356 10.788C9.89156 10.972 10.2596 11.064 10.6676 11.064ZM19.1368 11.628C18.9688 11.772 18.7608 11.884 18.5128 11.964C18.2648 12.036 18.0088 12.072 17.7448 12.072C17.1048 12.072 16.6088 11.9 16.2568 11.556C15.9048 11.212 15.7288 10.72 15.7288 10.08V6.588H14.6488V5.64H15.7288V4.248H16.8808V5.64H18.7048V6.588H16.8808V10.032C16.8808 10.376 16.9648 10.64 17.1328 10.824C17.3088 11.008 17.5568 11.1 17.8768 11.1C18.2288 11.1 18.5288 11 18.7768 10.8L19.1368 11.628ZM22.8455 5.58C23.7255 5.58 24.3975 5.796 24.8615 6.228C25.3335 6.66 25.5695 7.304 25.5695 8.16V12H24.4775V11.16C24.2855 11.456 24.0095 11.684 23.6495 11.844C23.2975 11.996 22.8775 12.072 22.3895 12.072C21.6775 12.072 21.1055 11.9 20.6735 11.556C20.2495 11.212 20.0375 10.76 20.0375 10.2C20.0375 9.64 20.2415 9.192 20.6495 8.856C21.0575 8.512 21.7055 8.34 22.5935 8.34H24.4175V8.112C24.4175 7.616 24.2735 7.236 23.9855 6.972C23.6975 6.708 23.2735 6.576 22.7135 6.576C22.3375 6.576 21.9695 6.64 21.6095 6.768C21.2495 6.888 20.9455 7.052 20.6975 7.26L20.2175 6.396C20.5455 6.132 20.9375 5.932 21.3935 5.796C21.8495 5.652 22.3335 5.58 22.8455 5.58ZM22.5815 11.184C23.0215 11.184 23.4015 11.088 23.7215 10.896C24.0415 10.696 24.2735 10.416 24.4175 10.056V9.168H22.6415C21.6655 9.168 21.1775 9.496 21.1775 10.152C21.1775 10.472 21.3015 10.724 21.5495 10.908C21.7975 11.092 22.1415 11.184 22.5815 11.184ZM27.7014 3.096H28.8534V12H27.7014V3.096ZM40.2756 3.096V12H39.1716V10.992C38.9156 11.344 38.5916 11.612 38.1996 11.796C37.8076 11.98 37.3756 12.072 36.9036 12.072C36.2876 12.072 35.7356 11.936 35.2476 11.664C34.7596 11.392 34.3756 11.012 34.0956 10.524C33.8236 10.028 33.6876 9.46 33.6876 8.82C33.6876 8.18 33.8236 7.616 34.0956 7.128C34.3756 6.64 34.7596 6.26 35.2476 5.988C35.7356 5.716 36.2876 5.58 36.9036 5.58C37.3596 5.58 37.7796 5.668 38.1636 5.844C38.5476 6.012 38.8676 6.264 39.1236 6.6V3.096H40.2756ZM36.9996 11.064C37.3996 11.064 37.7636 10.972 38.0916 10.788C38.4196 10.596 38.6756 10.332 38.8596 9.996C39.0436 9.652 39.1356 9.26 39.1356 8.82C39.1356 8.38 39.0436 7.992 38.8596 7.656C38.6756 7.312 38.4196 7.048 38.0916 6.864C37.7636 6.68 37.3996 6.588 36.9996 6.588C36.5916 6.588 36.2236 6.68 35.8956 6.864C35.5756 7.048 35.3196 7.312 35.1276 7.656C34.9436 7.992 34.8516 8.38 34.8516 8.82C34.8516 9.26 34.9436 9.652 35.1276 9.996C35.3196 10.332 35.5756 10.596 35.8956 10.788C36.2236 10.972 36.5916 11.064 36.9996 11.064ZM48.2033 8.856C48.2033 8.944 48.1953 9.06 48.1793 9.204H43.0193C43.0913 9.764 43.3353 10.216 43.7513 10.56C44.1753 10.896 44.6993 11.064 45.3233 11.064C46.0833 11.064 46.6953 10.808 47.1593 10.296L47.7953 11.04C47.5073 11.376 47.1473 11.632 46.7153 11.808C46.2913 11.984 45.8153 12.072 45.2873 12.072C44.6153 12.072 44.0193 11.936 43.4993 11.664C42.9793 11.384 42.5753 10.996 42.2873 10.5C42.0073 10.004 41.8673 9.444 41.8673 8.82C41.8673 8.204 42.0033 7.648 42.2753 7.152C42.5553 6.656 42.9353 6.272 43.4153 6C43.9033 5.72 44.4513 5.58 45.0593 5.58C45.6673 5.58 46.2073 5.72 46.6793 6C47.1593 6.272 47.5313 6.656 47.7953 7.152C48.0673 7.648 48.2033 8.216 48.2033 8.856ZM45.0593 6.552C44.5073 6.552 44.0433 6.72 43.6673 7.056C43.2993 7.392 43.0833 7.832 43.0193 8.376H47.0993C47.0353 7.84 46.8153 7.404 46.4393 7.068C46.0713 6.724 45.6113 6.552 45.0593 6.552ZM59.8176 9.936H58.2216V12H57.0576V9.936H52.3896V9.096L56.6856 3.6H57.9816L53.8656 8.904H57.0936V7.08H58.2216V8.904H59.8176V9.936ZM67.6476 5.58C68.2636 5.58 68.8156 5.716 69.3036 5.988C69.7916 6.26 70.1716 6.64 70.4436 7.128C70.7236 7.616 70.8636 8.18 70.8636 8.82C70.8636 9.46 70.7236 10.028 70.4436 10.524C70.1716 11.012 69.7916 11.392 69.3036 11.664C68.8156 11.936 68.2636 12.072 67.6476 12.072C67.1916 12.072 66.7716 11.984 66.3876 11.808C66.0116 11.632 65.6916 11.376 65.4276 11.04V14.328H64.2756V5.64H65.3796V6.648C65.6356 6.296 65.9596 6.032 66.3516 5.856C66.7436 5.672 67.1756 5.58 67.6476 5.58ZM67.5516 11.064C67.9596 11.064 68.3236 10.972 68.6436 10.788C68.9716 10.596 69.2276 10.332 69.4116 9.996C69.6036 9.652 69.6996 9.26 69.6996 8.82C69.6996 8.38 69.6036 7.992 69.4116 7.656C69.2276 7.312 68.9716 7.048 68.6436 6.864C68.3236 6.68 67.9596 6.588 67.5516 6.588C67.1516 6.588 66.7876 6.684 66.4596 6.876C66.1396 7.06 65.8836 7.32 65.6916 7.656C65.5076 7.992 65.4156 8.38 65.4156 8.82C65.4156 9.26 65.5076 9.652 65.6916 9.996C65.8756 10.332 66.1316 10.596 66.4596 10.788C66.7876 10.972 67.1516 11.064 67.5516 11.064ZM75.1793 12.072C74.5473 12.072 73.9793 11.932 73.4753 11.652C72.9713 11.372 72.5753 10.988 72.2873 10.5C72.0073 10.004 71.8673 9.444 71.8673 8.82C71.8673 8.196 72.0073 7.64 72.2873 7.152C72.5753 6.656 72.9713 6.272 73.4753 6C73.9793 5.72 74.5473 5.58 75.1793 5.58C75.8113 5.58 76.3753 5.72 76.8713 6C77.3753 6.272 77.7673 6.656 78.0473 7.152C78.3353 7.64 78.4793 8.196 78.4793 8.82C78.4793 9.444 78.3353 10.004 78.0473 10.5C77.7673 10.988 77.3753 11.372 76.8713 11.652C76.3753 11.932 75.8113 12.072 75.1793 12.072ZM75.1793 11.064C75.5873 11.064 75.9513 10.972 76.2713 10.788C76.5993 10.596 76.8553 10.332 77.0393 9.996C77.2233 9.652 77.3153 9.26 77.3153 8.82C77.3153 8.38 77.2233 7.992 77.0393 7.656C76.8553 7.312 76.5993 7.048 76.2713 6.864C75.9513 6.68 75.5873 6.588 75.1793 6.588C74.7713 6.588 74.4033 6.68 74.0753 6.864C73.7553 7.048 73.4993 7.312 73.3073 7.656C73.1233 7.992 73.0313 8.38 73.0313 8.82C73.0313 9.26 73.1233 9.652 73.3073 9.996C73.4993 10.332 73.7553 10.596 74.0753 10.788C74.4033 10.972 74.7713 11.064 75.1793 11.064ZM83.4685 5.58C84.2765 5.58 84.9165 5.816 85.3885 6.288C85.8685 6.752 86.1085 7.436 86.1085 8.34V12H84.9565V8.472C84.9565 7.856 84.8085 7.392 84.5125 7.08C84.2165 6.768 83.7925 6.612 83.2405 6.612C82.6165 6.612 82.1245 6.796 81.7645 7.164C81.4045 7.524 81.2245 8.044 81.2245 8.724V12H80.0725V5.64H81.1765V6.6C81.4085 6.272 81.7205 6.02 82.1125 5.844C82.5125 5.668 82.9645 5.58 83.4685 5.58ZM91.8164 11.628C91.6484 11.772 91.4404 11.884 91.1924 11.964C90.9444 12.036 90.6884 12.072 90.4244 12.072C89.7844 12.072 89.2884 11.9 88.9364 11.556C88.5844 11.212 88.4084 10.72 88.4084 10.08V6.588H87.3284V5.64H88.4084V4.248H89.5604V5.64H91.3844V6.588H89.5604V10.032C89.5604 10.376 89.6444 10.64 89.8124 10.824C89.9884 11.008 90.2364 11.1 90.5564 11.1C90.9084 11.1 91.2084 11 91.4564 10.8L91.8164 11.628ZM95.7223 12.072C95.0903 12.072 94.5223 11.932 94.0183 11.652C93.5143 11.372 93.1183 10.988 92.8303 10.5C92.5503 10.004 92.4103 9.444 92.4103 8.82C92.4103 8.196 92.5503 7.64 92.8303 7.152C93.1183 6.656 93.5143 6.272 94.0183 6C94.5223 5.72 95.0903 5.58 95.7223 5.58C96.3543 5.58 96.9183 5.72 97.4143 6C97.9183 6.272 98.3103 6.656 98.5903 7.152C98.8783 7.64 99.0223 8.196 99.0223 8.82C99.0223 9.444 98.8783 10.004 98.5903 10.5C98.3103 10.988 97.9183 11.372 97.4143 11.652C96.9183 11.932 96.3543 12.072 95.7223 12.072ZM95.7223 11.064C96.1303 11.064 96.4943 10.972 96.8143 10.788C97.1423 10.596 97.3983 10.332 97.5823 9.996C97.7663 9.652 97.8583 9.26 97.8583 8.82C97.8583 8.38 97.7663 7.992 97.5823 7.656C97.3983 7.312 97.1423 7.048 96.8143 6.864C96.4943 6.68 96.1303 6.588 95.7223 6.588C95.3143 6.588 94.9463 6.68 94.6183 6.864C94.2983 7.048 94.0423 7.312 93.8503 7.656C93.6663 7.992 93.5743 8.38 93.5743 8.82C93.5743 9.26 93.6663 9.652 93.8503 9.996C94.0423 10.332 94.2983 10.596 94.6183 10.788C94.9463 10.972 95.3143 11.064 95.7223 11.064ZM102.439 12.072C101.919 12.072 101.419 12.004 100.939 11.868C100.459 11.724 100.083 11.544 99.8114 11.328L100.291 10.416C100.571 10.616 100.911 10.776 101.311 10.896C101.711 11.016 102.115 11.076 102.523 11.076C103.531 11.076 104.035 10.788 104.035 10.212C104.035 10.02 103.967 9.868 103.831 9.756C103.695 9.644 103.523 9.564 103.315 9.516C103.115 9.46 102.827 9.4 102.451 9.336C101.939 9.256 101.519 9.164 101.191 9.06C100.871 8.956 100.595 8.78 100.363 8.532C100.131 8.284 100.015 7.936 100.015 7.488C100.015 6.912 100.255 6.452 100.735 6.108C101.215 5.756 101.859 5.58 102.667 5.58C103.091 5.58 103.515 5.632 103.939 5.736C104.363 5.84 104.711 5.98 104.983 6.156L104.491 7.068C103.971 6.732 103.359 6.564 102.655 6.564C102.167 6.564 101.795 6.644 101.539 6.804C101.283 6.964 101.155 7.176 101.155 7.44C101.155 7.648 101.227 7.812 101.371 7.932C101.515 8.052 101.691 8.14 101.899 8.196C102.115 8.252 102.415 8.316 102.799 8.388C103.311 8.476 103.723 8.572 104.035 8.676C104.355 8.772 104.627 8.94 104.851 9.18C105.075 9.42 105.187 9.756 105.187 10.188C105.187 10.764 104.939 11.224 104.443 11.568C103.955 11.904 103.287 12.072 102.439 12.072Z" fill="#5F6E84"/>
</g>
<circle cx="115" cy="7.5" r="1" fill="#5F6E84"/>
<g filter="url(#filter1_b_944_30347)">
<path d="M127.358 3.6V12H126.17V4.644H124.274V3.6H127.358ZM132.627 12.096C131.963 12.096 131.371 11.928 130.851 11.592C130.339 11.248 129.935 10.752 129.639 10.104C129.343 9.456 129.195 8.688 129.195 7.8C129.195 6.912 129.343 6.144 129.639 5.496C129.935 4.848 130.339 4.356 130.851 4.02C131.371 3.676 131.963 3.504 132.627 3.504C133.283 3.504 133.867 3.676 134.379 4.02C134.899 4.356 135.307 4.848 135.603 5.496C135.899 6.144 136.047 6.912 136.047 7.8C136.047 8.688 135.899 9.456 135.603 10.104C135.307 10.752 134.899 11.248 134.379 11.592C133.867 11.928 133.283 12.096 132.627 12.096ZM132.627 11.028C133.299 11.028 133.835 10.752 134.235 10.2C134.643 9.648 134.847 8.848 134.847 7.8C134.847 6.752 134.643 5.952 134.235 5.4C133.835 4.848 133.299 4.572 132.627 4.572C131.947 4.572 131.403 4.848 130.995 5.4C130.595 5.952 130.395 6.752 130.395 7.8C130.395 8.848 130.595 9.648 130.995 10.2C131.403 10.752 131.947 11.028 132.627 11.028ZM145.671 5.58C146.471 5.58 147.103 5.812 147.567 6.276C148.039 6.74 148.275 7.428 148.275 8.34V12H147.123V8.472C147.123 7.856 146.979 7.392 146.691 7.08C146.411 6.768 146.007 6.612 145.479 6.612C144.895 6.612 144.431 6.796 144.087 7.164C143.743 7.524 143.571 8.044 143.571 8.724V12H142.419V8.472C142.419 7.856 142.275 7.392 141.987 7.08C141.707 6.768 141.303 6.612 140.775 6.612C140.191 6.612 139.727 6.796 139.383 7.164C139.039 7.524 138.867 8.044 138.867 8.724V12H137.715V5.64H138.819V6.588C139.051 6.26 139.355 6.012 139.731 5.844C140.107 5.668 140.535 5.58 141.015 5.58C141.511 5.58 141.951 5.68 142.335 5.88C142.719 6.08 143.015 6.372 143.223 6.756C143.463 6.388 143.795 6.1 144.219 5.892C144.651 5.684 145.135 5.58 145.671 5.58ZM150.395 5.64H151.547V12H150.395V5.64ZM150.971 4.416C150.747 4.416 150.559 4.344 150.407 4.2C150.263 4.056 150.191 3.88 150.191 3.672C150.191 3.464 150.263 3.288 150.407 3.144C150.559 2.992 150.747 2.916 150.971 2.916C151.195 2.916 151.379 2.988 151.523 3.132C151.675 3.268 151.751 3.44 151.751 3.648C151.751 3.864 151.675 4.048 151.523 4.2C151.379 4.344 151.195 4.416 150.971 4.416ZM157.142 5.58C157.95 5.58 158.59 5.816 159.062 6.288C159.542 6.752 159.782 7.436 159.782 8.34V12H158.63V8.472C158.63 7.856 158.482 7.392 158.186 7.08C157.89 6.768 157.466 6.612 156.914 6.612C156.29 6.612 155.798 6.796 155.438 7.164C155.078 7.524 154.898 8.044 154.898 8.724V12H153.746V5.64H154.85V6.6C155.082 6.272 155.394 6.02 155.786 5.844C156.186 5.668 156.638 5.58 157.142 5.58Z" fill="#5F6E84"/>
</g>
<defs>
<filter id="filter0_b_944_30347" x="-39.4873" y="-36.9038" width="184.675" height="91.2319" filterUnits="userSpaceOnUse" color-interpolation-filters="sRGB">
<feFlood flood-opacity="0" result="BackgroundImageFix"/>
<feGaussianBlur in="BackgroundImageFix" stdDeviation="20"/>
<feComposite in2="SourceAlpha" operator="in" result="effect1_backgroundBlur_944_30347"/>
<feBlend mode="normal" in="SourceGraphic" in2="effect1_backgroundBlur_944_30347" result="shape"/>
</filter>
<filter id="filter1_b_944_30347" x="84.2734" y="-37.084" width="115.509" height="89.1802" filterUnits="userSpaceOnUse" color-interpolation-filters="sRGB">
<feFlood flood-opacity="0" result="BackgroundImageFix"/>
<feGaussianBlur in="BackgroundImageFix" stdDeviation="20"/>
<feComposite in2="SourceAlpha" operator="in" result="effect1_backgroundBlur_944_30347"/>
<feBlend mode="normal" in="SourceGraphic" in2="effect1_backgroundBlur_944_30347" result="shape"/>
</filter>
</defs>
</svg>
