<svg width="61" height="17" viewBox="0 0 61 17" fill="none" xmlns="http://www.w3.org/2000/svg">
<mask id="mask0_944_30087" style="mask-type:alpha" maskUnits="userSpaceOnUse" x="0" y="0" width="16" height="17">
<rect y="0.5" width="16" height="16" fill="#D9D9D9"/>
</mask>
<g mask="url(#mask0_944_30087)">
<path d="M2.79961 14.9001C2.46961 14.9001 2.18711 14.7826 1.95211 14.5476C1.71711 14.3126 1.59961 14.0301 1.59961 13.7001V7.3001C1.59961 6.9701 1.71711 6.6876 1.95211 6.4526C2.18711 6.2176 2.46961 6.1001 2.79961 6.1001H13.1996C13.5296 6.1001 13.8121 6.2176 14.0471 6.4526C14.2821 6.6876 14.3996 6.9701 14.3996 7.3001V13.7001C14.3996 14.0301 14.2821 14.3126 14.0471 14.5476C13.8121 14.7826 13.5296 14.9001 13.1996 14.9001H2.79961ZM2.79961 13.7001H13.1996V7.3001H2.79961V13.7001ZM7.26628 12.8001L10.4163 10.7501C10.5052 10.6906 10.5496 10.6062 10.5496 10.4971C10.5496 10.388 10.5052 10.3057 10.4163 10.2501L7.26628 8.2001C7.16628 8.13343 7.0635 8.128 6.95794 8.1838C6.85239 8.23959 6.79961 8.32835 6.79961 8.4501V12.5501C6.79961 12.6718 6.85239 12.7606 6.95794 12.8164C7.0635 12.8722 7.16628 12.8668 7.26628 12.8001ZM3.80448 5.3001C3.63457 5.3001 3.49128 5.24294 3.37461 5.12861C3.25794 5.01428 3.19961 4.87261 3.19961 4.70361C3.19961 4.5346 3.25708 4.39176 3.37201 4.2751C3.48695 4.15843 3.62938 4.1001 3.79929 4.1001H12.1947C12.3647 4.1001 12.5079 4.15726 12.6246 4.27158C12.7413 4.38591 12.7996 4.52758 12.7996 4.69658C12.7996 4.86559 12.7421 5.00843 12.6272 5.1251C12.5123 5.24176 12.3698 5.3001 12.1999 5.3001H3.80448ZM5.39961 3.3001C5.22961 3.3001 5.08711 3.24294 4.97211 3.12861C4.85711 3.01428 4.79961 2.87261 4.79961 2.70361C4.79961 2.5346 4.85711 2.39176 4.97211 2.2751C5.08711 2.15843 5.22961 2.1001 5.39961 2.1001H10.5996C10.7696 2.1001 10.9121 2.15726 11.0271 2.27158C11.1421 2.38591 11.1996 2.52758 11.1996 2.69658C11.1996 2.86559 11.1421 3.00843 11.0271 3.1251C10.9121 3.24176 10.7696 3.3001 10.5996 3.3001H5.39961Z" fill="#5F6E84"/>
</g>
<g filter="url(#filter0_b_944_30087)">
<path d="M30.2886 4.2L25.9906 14H24.6046L20.2926 4.2H21.8046L25.3326 12.25L28.8886 4.2H30.2886ZM31.0553 6.58H32.3993V14H31.0553V6.58ZM32.5813 3.682H34.2893L31.9373 5.502H30.6773L32.5813 3.682ZM41.9654 3.612V14H40.6774V12.824C40.3787 13.2347 40.0007 13.5473 39.5434 13.762C39.0861 13.9767 38.5821 14.084 38.0314 14.084C37.3127 14.084 36.6687 13.9253 36.0994 13.608C35.5301 13.2907 35.0821 12.8473 34.7554 12.278C34.4381 11.6993 34.2794 11.0367 34.2794 10.29C34.2794 9.54333 34.4381 8.88533 34.7554 8.316C35.0821 7.74667 35.5301 7.30333 36.0994 6.986C36.6687 6.66867 37.3127 6.51 38.0314 6.51C38.5634 6.51 39.0534 6.61267 39.5014 6.818C39.9494 7.014 40.3227 7.308 40.6214 7.7V3.612H41.9654ZM38.1434 12.908C38.6101 12.908 39.0347 12.8007 39.4174 12.586C39.8001 12.362 40.0987 12.054 40.3134 11.662C40.5281 11.2607 40.6354 10.8033 40.6354 10.29C40.6354 9.77667 40.5281 9.324 40.3134 8.932C40.0987 8.53067 39.8001 8.22267 39.4174 8.008C39.0347 7.79333 38.6101 7.686 38.1434 7.686C37.6674 7.686 37.2381 7.79333 36.8554 8.008C36.4821 8.22267 36.1834 8.53067 35.9594 8.932C35.7447 9.324 35.6374 9.77667 35.6374 10.29C35.6374 10.8033 35.7447 11.2607 35.9594 11.662C36.1834 12.054 36.4821 12.362 36.8554 12.586C37.2381 12.8007 37.6674 12.908 38.1434 12.908ZM51.2144 10.332C51.2144 10.4347 51.205 10.57 51.1864 10.738H45.1664C45.2504 11.3913 45.535 11.9187 46.0204 12.32C46.515 12.712 47.1264 12.908 47.8544 12.908C48.741 12.908 49.455 12.6093 49.9964 12.012L50.7384 12.88C50.4024 13.272 49.9824 13.5707 49.4784 13.776C48.9837 13.9813 48.4284 14.084 47.8124 14.084C47.0284 14.084 46.333 13.9253 45.7264 13.608C45.1197 13.2813 44.6484 12.8287 44.3124 12.25C43.9857 11.6713 43.8224 11.018 43.8224 10.29C43.8224 9.57133 43.981 8.92267 44.2984 8.344C44.625 7.76533 45.0684 7.31733 45.6284 7C46.1977 6.67333 46.837 6.51 47.5464 6.51C48.2557 6.51 48.8857 6.67333 49.4364 7C49.9964 7.31733 50.4304 7.76533 50.7384 8.344C51.0557 8.92267 51.2144 9.58533 51.2144 10.332ZM47.5464 7.644C46.9024 7.644 46.361 7.84 45.9224 8.232C45.493 8.624 45.241 9.13733 45.1664 9.772H49.9264C49.8517 9.14667 49.595 8.638 49.1564 8.246C48.727 7.84467 48.1904 7.644 47.5464 7.644ZM56.2586 14.084C55.5213 14.084 54.8586 13.9207 54.2706 13.594C53.6826 13.2673 53.2206 12.8193 52.8846 12.25C52.558 11.6713 52.3946 11.018 52.3946 10.29C52.3946 9.562 52.558 8.91333 52.8846 8.344C53.2206 7.76533 53.6826 7.31733 54.2706 7C54.8586 6.67333 55.5213 6.51 56.2586 6.51C56.996 6.51 57.654 6.67333 58.2326 7C58.8206 7.31733 59.278 7.76533 59.6046 8.344C59.9406 8.91333 60.1086 9.562 60.1086 10.29C60.1086 11.018 59.9406 11.6713 59.6046 12.25C59.278 12.8193 58.8206 13.2673 58.2326 13.594C57.654 13.9207 56.996 14.084 56.2586 14.084ZM56.2586 12.908C56.7346 12.908 57.1593 12.8007 57.5326 12.586C57.9153 12.362 58.214 12.054 58.4286 11.662C58.6433 11.2607 58.7506 10.8033 58.7506 10.29C58.7506 9.77667 58.6433 9.324 58.4286 8.932C58.214 8.53067 57.9153 8.22267 57.5326 8.008C57.1593 7.79333 56.7346 7.686 56.2586 7.686C55.7826 7.686 55.3533 7.79333 54.9706 8.008C54.5973 8.22267 54.2986 8.53067 54.0746 8.932C53.86 9.324 53.7526 9.77667 53.7526 10.29C53.7526 10.8033 53.86 11.2607 54.0746 11.662C54.2986 12.054 54.5973 12.362 54.9706 12.586C55.3533 12.8007 55.7826 12.908 56.2586 12.908Z" fill="#5F6E84"/>
</g>
<defs>
<filter id="filter0_b_944_30087" x="-19.707" y="-36.3882" width="119.816" height="90.4722" filterUnits="userSpaceOnUse" color-interpolation-filters="sRGB">
<feFlood flood-opacity="0" result="BackgroundImageFix"/>
<feGaussianBlur in="BackgroundImageFix" stdDeviation="20"/>
<feComposite in2="SourceAlpha" operator="in" result="effect1_backgroundBlur_944_30087"/>
<feBlend mode="normal" in="SourceGraphic" in2="effect1_backgroundBlur_944_30087" result="shape"/>
</filter>
</defs>
</svg>
